<?xml version="1.0" encoding="utf-8"?>
<!-- Generator: Adobe Illustrator 21.1.0, SVG Export Plug-In . SVG Version: 6.00 Build 0)  -->
<svg version="1.1" baseProfile="basic" id="Ebene_1"
	 xmlns="http://www.w3.org/2000/svg" xmlns:xlink="http://www.w3.org/1999/xlink" x="0px" y="0px" viewBox="0 0 960 540"
	 xml:space="preserve">
<style type="text/css">
	.st0{clip-path:url(#SVGID_2_);fill:#FFFFFF;}
	.st1{clip-path:url(#SVGID_2_);fill:none;stroke:#ED7D31;stroke-width:3;stroke-miterlimit:8;stroke-dasharray:3,3;}
	.st2{clip-path:url(#SVGID_2_);}
	.st3{clip-path:url(#SVGID_4_);}
	.st4{clip-path:url(#SVGID_8_);fill:#0D69A6;}
	.st5{clip-path:url(#SVGID_8_);fill:none;stroke:#0D69A6;stroke-miterlimit:8;}
	.st6{clip-path:url(#SVGID_8_);}
	.st7{fill:#F79B16;}
	.st8{clip-path:url(#SVGID_8_);fill:#F79B16;}
	.st9{clip-path:url(#SVGID_8_);fill:#FAC373;}
	.st10{clip-path:url(#SVGID_8_);fill:none;stroke:#2F528F;stroke-miterlimit:8;}
	.st11{clip-path:url(#SVGID_8_);fill:none;stroke:#F79B16;stroke-width:3;stroke-miterlimit:8;stroke-dasharray:3,3;}
</style>
<g>
	<defs>
		<rect id="SVGID_1_" width="960" height="540"/>
	</defs>
	<clipPath id="SVGID_2_">
		<use xlink:href="#SVGID_1_"  style="overflow:visible;"/>
	</clipPath>
	<rect class="st0" width="960" height="540"/>
	<path class="st0" d="M21.6,59.1C21.6,38,38.6,21,59.7,21h664.5c21.1,0,38.1,17.1,38.1,38.1v152.5c0,21.1-17.1,38.1-38.1,38.1H59.7
		c-21.1,0-38.1-17.1-38.1-38.1V59.1z"/>
	<path class="st1" d="M21.6,59.1C21.6,38,38.6,21,59.7,21h664.5c21.1,0,38.1,17.1,38.1,38.1v152.5c0,21.1-17.1,38.1-38.1,38.1H59.7
		c-21.1,0-38.1-17.1-38.1-38.1V59.1z"/>
	<g class="st2">
		<path d="M355.1,52.5c0,0,0,0.1,0,0.1s-0.1,0.1-0.1,0.1s-0.1,0-0.2,0.1s-0.2,0-0.4,0c-0.2,0-0.3,0-0.4,0s-0.2,0-0.2-0.1
			s-0.1-0.1-0.1-0.1s-0.1-0.1-0.1-0.2l-1-2.7c-0.1-0.3-0.3-0.6-0.4-0.8s-0.3-0.5-0.5-0.7s-0.4-0.3-0.6-0.4s-0.5-0.2-0.9-0.2h-1v4.8
			c0,0,0,0.1,0,0.1s-0.1,0.1-0.1,0.1s-0.1,0-0.2,0.1s-0.2,0-0.4,0s-0.3,0-0.4,0s-0.2,0-0.2-0.1s-0.1,0-0.1-0.1s0-0.1,0-0.1V42
			c0-0.2,0.1-0.4,0.2-0.5s0.2-0.1,0.4-0.1h2.4c0.3,0,0.5,0,0.7,0s0.4,0,0.5,0c0.4,0.1,0.8,0.2,1.2,0.4s0.6,0.4,0.8,0.6
			s0.4,0.5,0.5,0.9s0.2,0.7,0.2,1.1c0,0.4-0.1,0.7-0.2,1s-0.3,0.6-0.4,0.8s-0.4,0.4-0.7,0.6s-0.6,0.3-0.9,0.4
			c0.2,0.1,0.4,0.2,0.5,0.3s0.3,0.3,0.4,0.5s0.3,0.4,0.4,0.6s0.2,0.5,0.4,0.8l1,2.5c0.1,0.2,0.1,0.4,0.2,0.4S355.1,52.5,355.1,52.5z
			 M352.8,44.5c0-0.4-0.1-0.8-0.3-1.1s-0.5-0.5-1-0.7c-0.1,0-0.3-0.1-0.5-0.1s-0.4,0-0.7,0H349v3.8h1.5c0.4,0,0.7,0,1-0.1
			s0.5-0.2,0.7-0.4s0.3-0.4,0.4-0.6S352.8,44.8,352.8,44.5z"/>
		<path d="M363,52.5c0,0.1,0,0.1-0.1,0.2s-0.1,0.1-0.2,0.1s-0.2,0-0.4,0c-0.2,0-0.3,0-0.4,0s-0.2,0-0.2-0.1s-0.1-0.1-0.1-0.2v-0.8
			c-0.3,0.4-0.7,0.7-1.2,0.9s-0.9,0.3-1.3,0.3c-0.4,0-0.8-0.1-1.1-0.2s-0.6-0.3-0.9-0.5s-0.4-0.5-0.6-0.8s-0.2-0.6-0.2-1
			c0-0.4,0.1-0.8,0.3-1.2s0.4-0.6,0.8-0.8s0.8-0.4,1.2-0.5s1-0.2,1.7-0.2h1.1v-0.6c0-0.3,0-0.6-0.1-0.8s-0.2-0.4-0.3-0.6
			s-0.3-0.3-0.6-0.4s-0.5-0.1-0.8-0.1c-0.4,0-0.7,0-1,0.1s-0.5,0.2-0.7,0.3s-0.4,0.2-0.5,0.3s-0.3,0.1-0.3,0.1c0,0-0.1,0-0.1,0
			s-0.1-0.1-0.1-0.1s0-0.1-0.1-0.2s0-0.2,0-0.2c0-0.1,0-0.3,0-0.3s0.1-0.2,0.1-0.2s0.2-0.2,0.4-0.3s0.4-0.2,0.7-0.3s0.5-0.2,0.8-0.2
			s0.6-0.1,0.9-0.1c0.6,0,1.1,0.1,1.5,0.2s0.7,0.3,1,0.6s0.4,0.6,0.5,0.9s0.2,0.8,0.2,1.3V52.5z M361.6,48.9h-1.2
			c-0.4,0-0.7,0-1,0.1s-0.5,0.2-0.7,0.3s-0.3,0.3-0.4,0.5s-0.1,0.4-0.1,0.6c0,0.4,0.1,0.7,0.4,1s0.6,0.4,1.1,0.4
			c0.4,0,0.7-0.1,1.1-0.3s0.7-0.5,1-0.9V48.9z"/>
		<path d="M370.6,50.4c0,0.4-0.1,0.8-0.2,1.1s-0.4,0.6-0.6,0.8s-0.6,0.4-1,0.5s-0.8,0.2-1.3,0.2c-0.3,0-0.5,0-0.8-0.1
			s-0.5-0.1-0.7-0.2s-0.4-0.1-0.5-0.2s-0.2-0.1-0.3-0.2s-0.1-0.1-0.1-0.2s0-0.2,0-0.4c0-0.1,0-0.2,0-0.3s0-0.1,0-0.2s0-0.1,0.1-0.1
			s0.1,0,0.1,0c0.1,0,0.2,0,0.3,0.1s0.3,0.2,0.5,0.3s0.4,0.2,0.7,0.3s0.5,0.1,0.9,0.1c0.2,0,0.5,0,0.7-0.1s0.4-0.1,0.5-0.2
			s0.3-0.2,0.3-0.4s0.1-0.3,0.1-0.6c0-0.2-0.1-0.4-0.2-0.6s-0.3-0.3-0.5-0.4s-0.4-0.2-0.6-0.3s-0.5-0.2-0.7-0.3s-0.5-0.2-0.7-0.3
			s-0.4-0.3-0.6-0.5s-0.3-0.4-0.5-0.7s-0.2-0.6-0.2-0.9c0-0.3,0.1-0.6,0.2-0.9s0.3-0.5,0.5-0.7s0.5-0.4,0.9-0.5s0.8-0.2,1.3-0.2
			c0.2,0,0.4,0,0.6,0.1s0.4,0.1,0.6,0.1s0.3,0.1,0.4,0.2s0.2,0.1,0.3,0.2s0.1,0.1,0.1,0.1s0,0.1,0,0.1s0,0.1,0,0.2s0,0.1,0,0.2
			c0,0.1,0,0.2,0,0.3s0,0.1,0,0.2s0,0.1-0.1,0.1s-0.1,0-0.1,0c-0.1,0-0.1,0-0.2-0.1s-0.2-0.1-0.4-0.2s-0.3-0.1-0.6-0.2
			s-0.5-0.1-0.7-0.1c-0.2,0-0.5,0-0.7,0.1s-0.3,0.1-0.5,0.2s-0.2,0.2-0.3,0.4s-0.1,0.3-0.1,0.5c0,0.2,0.1,0.4,0.2,0.6
			s0.3,0.3,0.5,0.4s0.4,0.2,0.6,0.3s0.5,0.2,0.7,0.3s0.5,0.2,0.7,0.3s0.5,0.3,0.6,0.4s0.3,0.4,0.5,0.6S370.6,50,370.6,50.4z"/>
		<path d="M380,48.4c0,0.7-0.1,1.3-0.2,1.9s-0.4,1-0.7,1.4s-0.6,0.7-1.1,0.9s-0.9,0.3-1.5,0.3c-0.2,0-0.5,0-0.7-0.1
			s-0.4-0.1-0.6-0.2s-0.4-0.2-0.6-0.4s-0.4-0.3-0.6-0.5v4c0,0,0,0.1,0,0.1s-0.1,0.1-0.1,0.1s-0.1,0-0.2,0.1s-0.2,0-0.4,0
			c-0.1,0-0.3,0-0.4,0s-0.2,0-0.2-0.1s-0.1-0.1-0.1-0.1s0-0.1,0-0.1v-11c0-0.1,0-0.1,0-0.1s0.1-0.1,0.1-0.1s0.1,0,0.2,0s0.2,0,0.3,0
			c0.1,0,0.2,0,0.3,0s0.1,0,0.2,0s0.1,0.1,0.1,0.1s0,0.1,0,0.1v1.1c0.2-0.2,0.5-0.5,0.7-0.6s0.4-0.3,0.7-0.5s0.5-0.2,0.7-0.3
			s0.5-0.1,0.8-0.1c0.6,0,1.1,0.1,1.5,0.3s0.7,0.5,1,0.9s0.4,0.8,0.6,1.3S380,47.9,380,48.4z M378.5,48.6c0-0.4,0-0.8-0.1-1.2
			c-0.1-0.4-0.2-0.7-0.3-1s-0.4-0.5-0.6-0.7c-0.3-0.2-0.6-0.3-0.9-0.3c-0.2,0-0.4,0-0.6,0.1c-0.2,0.1-0.4,0.1-0.6,0.3
			c-0.2,0.1-0.4,0.3-0.6,0.5s-0.4,0.4-0.7,0.7v3.1c0.4,0.5,0.8,0.9,1.1,1.1c0.4,0.3,0.7,0.4,1.1,0.4c0.4,0,0.7-0.1,0.9-0.3
			s0.5-0.4,0.6-0.7s0.3-0.6,0.4-1S378.5,49,378.5,48.6z"/>
		<path d="M389.4,48.4c0,0.7-0.1,1.3-0.2,1.9s-0.4,1-0.7,1.4s-0.6,0.7-1.1,0.9s-0.9,0.3-1.5,0.3c-0.3,0-0.5,0-0.7-0.1
			s-0.4-0.1-0.6-0.2s-0.4-0.3-0.6-0.4s-0.4-0.4-0.7-0.6v1c0,0,0,0.1,0,0.1s-0.1,0.1-0.1,0.1s-0.1,0-0.2,0s-0.2,0-0.3,0
			c-0.1,0-0.2,0-0.3,0s-0.1,0-0.2,0s-0.1,0-0.1-0.1s0-0.1,0-0.1V40.8c0,0,0-0.1,0-0.1s0.1-0.1,0.1-0.1s0.1,0,0.2-0.1s0.2,0,0.4,0
			c0.1,0,0.3,0,0.4,0s0.2,0,0.2,0.1s0.1,0.1,0.1,0.1s0,0.1,0,0.1v4.7c0.2-0.2,0.5-0.4,0.7-0.6s0.4-0.3,0.6-0.4s0.4-0.2,0.6-0.2
			s0.4-0.1,0.7-0.1c0.6,0,1.1,0.1,1.5,0.3s0.7,0.5,1,0.9s0.4,0.8,0.6,1.3S389.4,47.9,389.4,48.4z M387.9,48.6c0-0.4,0-0.8-0.1-1.2
			c-0.1-0.4-0.2-0.7-0.3-1s-0.4-0.5-0.6-0.7s-0.6-0.3-0.9-0.3c-0.2,0-0.4,0-0.6,0.1c-0.2,0.1-0.4,0.1-0.6,0.3
			c-0.2,0.1-0.4,0.3-0.6,0.5c-0.2,0.2-0.4,0.4-0.6,0.7v3.2c0.4,0.5,0.8,0.9,1.1,1.1c0.4,0.3,0.7,0.4,1.1,0.4c0.4,0,0.7-0.1,0.9-0.3
			s0.5-0.4,0.6-0.7s0.3-0.6,0.4-1C387.9,49.3,387.9,49,387.9,48.6z"/>
		<path d="M398.3,48.2c0,0.2-0.1,0.4-0.2,0.5s-0.2,0.1-0.4,0.1h-5.2c0,0.4,0,0.8,0.1,1.2s0.2,0.7,0.4,0.9c0.2,0.3,0.5,0.4,0.8,0.6
			c0.3,0.1,0.7,0.2,1.2,0.2c0.4,0,0.7,0,1-0.1s0.5-0.1,0.8-0.2s0.4-0.1,0.5-0.2c0.1-0.1,0.2-0.1,0.3-0.1c0,0,0.1,0,0.1,0
			c0,0,0.1,0.1,0.1,0.1s0,0.1,0,0.2s0,0.2,0,0.3c0,0.1,0,0.1,0,0.2s0,0.1,0,0.1s0,0.1,0,0.1s0,0.1-0.1,0.1s-0.1,0.1-0.3,0.2
			s-0.4,0.1-0.6,0.2s-0.5,0.1-0.9,0.2s-0.7,0.1-1.1,0.1c-0.7,0-1.2-0.1-1.7-0.3s-0.9-0.5-1.2-0.8s-0.6-0.8-0.8-1.3s-0.3-1.2-0.3-1.9
			c0-0.7,0.1-1.3,0.3-1.8s0.4-1,0.8-1.4s0.7-0.7,1.2-0.9s1-0.3,1.6-0.3c0.6,0,1.1,0.1,1.6,0.3s0.8,0.5,1.1,0.8s0.5,0.7,0.6,1.2
			s0.2,0.9,0.2,1.5V48.2z M396.9,47.8c0-0.8-0.2-1.4-0.5-1.8c-0.4-0.4-0.9-0.7-1.6-0.7c-0.4,0-0.7,0.1-0.9,0.2s-0.5,0.3-0.7,0.5
			c-0.2,0.2-0.3,0.5-0.4,0.8s-0.2,0.6-0.2,0.9H396.9z"/>
		<path d="M405.1,45.1c0,0.1,0,0.2,0,0.3s0,0.2,0,0.2s0,0.1-0.1,0.1s-0.1,0-0.1,0s-0.1,0-0.2,0s-0.1-0.1-0.2-0.1s-0.2-0.1-0.3-0.1
			s-0.2,0-0.3,0c-0.1,0-0.3,0-0.4,0.1s-0.3,0.2-0.4,0.3s-0.3,0.3-0.5,0.5s-0.4,0.5-0.6,0.8v5.2c0,0,0,0.1,0,0.1s-0.1,0.1-0.1,0.1
			s-0.1,0-0.2,0.1s-0.2,0-0.4,0c-0.1,0-0.3,0-0.4,0s-0.2,0-0.2-0.1s-0.1-0.1-0.1-0.1s0-0.1,0-0.1v-7.9c0,0,0-0.1,0-0.1
			s0.1-0.1,0.1-0.1s0.1,0,0.2-0.1s0.2,0,0.3,0c0.1,0,0.2,0,0.3,0s0.2,0,0.2,0.1s0.1,0.1,0.1,0.1s0,0.1,0,0.1v1.2
			c0.2-0.3,0.4-0.6,0.6-0.8s0.4-0.4,0.5-0.5s0.3-0.2,0.5-0.2s0.3-0.1,0.5-0.1c0.1,0,0.2,0,0.3,0s0.2,0,0.3,0s0.2,0,0.3,0.1
			s0.1,0.1,0.2,0.1s0.1,0.1,0.1,0.1s0,0.1,0,0.1s0,0.1,0,0.2S405.1,45,405.1,45.1z"/>
		<path d="M411.4,45.1c0,0.1,0,0.2,0,0.3s0,0.2,0,0.2s0,0.1-0.1,0.1s-0.1,0-0.1,0s-0.1,0-0.2,0s-0.1-0.1-0.2-0.1s-0.2-0.1-0.3-0.1
			s-0.2,0-0.3,0c-0.1,0-0.3,0-0.4,0.1s-0.3,0.2-0.4,0.3s-0.3,0.3-0.5,0.5s-0.4,0.5-0.6,0.8v5.2c0,0,0,0.1,0,0.1s-0.1,0.1-0.1,0.1
			s-0.1,0-0.2,0.1s-0.2,0-0.4,0c-0.1,0-0.3,0-0.4,0s-0.2,0-0.2-0.1s-0.1-0.1-0.1-0.1s0-0.1,0-0.1v-7.9c0,0,0-0.1,0-0.1
			s0.1-0.1,0.1-0.1s0.1,0,0.2-0.1s0.2,0,0.3,0c0.1,0,0.2,0,0.3,0s0.2,0,0.2,0.1s0.1,0.1,0.1,0.1s0,0.1,0,0.1v1.2
			c0.2-0.3,0.4-0.6,0.6-0.8s0.4-0.4,0.5-0.5s0.3-0.2,0.5-0.2s0.3-0.1,0.5-0.1c0.1,0,0.2,0,0.3,0s0.2,0,0.3,0s0.2,0,0.3,0.1
			s0.1,0.1,0.2,0.1s0.1,0.1,0.1,0.1s0,0.1,0,0.1s0,0.1,0,0.2S411.4,45,411.4,45.1z"/>
		<path d="M416.6,52.7l-1.1,2.9c0,0.1-0.1,0.2-0.3,0.2s-0.4,0.1-0.7,0.1c-0.2,0-0.3,0-0.4,0s-0.2,0-0.2-0.1s-0.1-0.1-0.1-0.1
			s0-0.1,0-0.2l1.1-2.8c-0.1,0-0.1-0.1-0.1-0.1s-0.1-0.1-0.1-0.2l-2.8-7.6c0-0.1-0.1-0.2-0.1-0.3s0-0.1,0.1-0.2s0.1-0.1,0.2-0.1
			s0.2,0,0.4,0s0.3,0,0.4,0s0.2,0,0.2,0s0.1,0.1,0.1,0.1s0.1,0.1,0.1,0.2l2.3,6.3h0l2.2-6.4c0-0.1,0.1-0.2,0.1-0.2s0.1-0.1,0.2-0.1
			s0.2,0,0.4,0c0.2,0,0.3,0,0.4,0s0.2,0,0.2,0.1s0.1,0.1,0.1,0.2s0,0.2-0.1,0.3L416.6,52.7z"/>
		<path d="M432.4,44.7c0,0.6-0.1,1.1-0.3,1.5s-0.5,0.8-0.8,1.2s-0.8,0.6-1.3,0.7s-1.1,0.3-1.8,0.3h-1.3v4.1c0,0,0,0.1,0,0.1
			s-0.1,0.1-0.1,0.1s-0.1,0-0.2,0.1s-0.2,0-0.4,0s-0.3,0-0.4,0s-0.2,0-0.2-0.1s-0.1,0-0.1-0.1s0-0.1,0-0.1V42c0-0.2,0.1-0.4,0.2-0.5
			s0.3-0.1,0.4-0.1h2.4c0.2,0,0.5,0,0.7,0s0.5,0.1,0.8,0.1s0.6,0.2,0.9,0.4s0.6,0.4,0.8,0.7s0.4,0.6,0.5,0.9S432.4,44.3,432.4,44.7z
			 M430.8,44.8c0-0.5-0.1-0.8-0.3-1.2s-0.4-0.5-0.6-0.7s-0.5-0.2-0.8-0.3s-0.5-0.1-0.8-0.1h-1.4v4.6h1.4c0.5,0,0.8-0.1,1.1-0.2
			s0.6-0.3,0.8-0.5s0.4-0.5,0.5-0.7S430.8,45.1,430.8,44.8z"/>
		<path d="M436.1,41.9c0,0.3-0.1,0.6-0.2,0.7s-0.4,0.2-0.7,0.2c-0.3,0-0.6-0.1-0.7-0.2s-0.2-0.3-0.2-0.7c0-0.3,0.1-0.6,0.2-0.7
			s0.4-0.2,0.7-0.2c0.3,0,0.6,0.1,0.7,0.2S436.1,41.6,436.1,41.9z M435.9,52.5c0,0,0,0.1,0,0.1s-0.1,0.1-0.1,0.1s-0.1,0-0.2,0.1
			s-0.2,0-0.4,0c-0.1,0-0.3,0-0.4,0s-0.2,0-0.2-0.1s-0.1-0.1-0.1-0.1s0-0.1,0-0.1v-7.9c0,0,0-0.1,0-0.1s0.1-0.1,0.1-0.1
			s0.1,0,0.2-0.1s0.2,0,0.4,0c0.1,0,0.3,0,0.4,0s0.2,0,0.2,0.1s0.1,0.1,0.1,0.1s0,0.1,0,0.1V52.5z"/>
	</g>
</g>
<g>
	<defs>
		<rect id="SVGID_3_" x="677.8" y="390" width="274.5" height="104"/>
	</defs>
	<clipPath id="SVGID_4_">
		<use xlink:href="#SVGID_3_"  style="overflow:visible;"/>
	</clipPath>
	<g class="st3">
		<defs>
			<rect id="SVGID_5_" x="677.8" y="390" width="274.5" height="104"/>
		</defs>
		<clipPath id="SVGID_6_">
			<use xlink:href="#SVGID_5_"  style="overflow:visible;"/>
		</clipPath>
		<g style="clip-path:url(#SVGID_6_);">
			
				<image style="overflow:visible;" width="512" height="194" xlink:href="D71E693C056FFF85.png"  transform="matrix(0.5361 0 0 0.5361 677.7987 389.9788)">
			</image>
		</g>
	</g>
</g>
<g>
	<defs>
		<rect id="SVGID_7_" width="960" height="540"/>
	</defs>
	<clipPath id="SVGID_8_">
		<use xlink:href="#SVGID_7_"  style="overflow:visible;"/>
	</clipPath>
	<path class="st4" d="M309.1,116.9c0-5.1,4.1-9.2,9.2-9.2h147.2c5.1,0,9.2,4.1,9.2,9.2v36.8c0,5.1-4.1,9.2-9.2,9.2H318.3
		c-5.1,0-9.2-4.1-9.2-9.2V116.9z"/>
	<path class="st5" d="M309.1,116.9c0-5.1,4.1-9.2,9.2-9.2h147.2c5.1,0,9.2,4.1,9.2,9.2v36.8c0,5.1-4.1,9.2-9.2,9.2H318.3
		c-5.1,0-9.2-4.1-9.2-9.2V116.9z"/>
	<g class="st6">
		<path class="st7" d="M368.3,133.4c0,0,0,0.1,0,0.1s0,0.1-0.1,0.2l-2.3,7.5c0,0.1,0,0.1-0.1,0.2s-0.1,0.1-0.2,0.1s-0.2,0-0.3,0
			s-0.3,0-0.4,0c-0.2,0-0.3,0-0.5,0s-0.2,0-0.3-0.1s-0.1-0.1-0.2-0.1s-0.1-0.1-0.1-0.1l-1.7-5.7l0-0.1l0,0.1l-1.5,5.7
			c0,0.1,0,0.1-0.1,0.2s-0.1,0.1-0.2,0.1s-0.2,0-0.3,0s-0.3,0-0.4,0c-0.2,0-0.3,0-0.4,0s-0.2,0-0.3-0.1s-0.1-0.1-0.2-0.1
			s-0.1-0.1-0.1-0.1l-2.3-7.5c0-0.1,0-0.2-0.1-0.2s0-0.1,0-0.1c0-0.1,0-0.1,0-0.1s0.1-0.1,0.1-0.1s0.1,0,0.2,0s0.2,0,0.3,0
			c0.2,0,0.3,0,0.4,0s0.2,0,0.2,0s0.1,0,0.1,0.1s0,0.1,0.1,0.1l1.9,6.5l0,0.1l0-0.1l1.7-6.5c0-0.1,0-0.1,0.1-0.1s0.1-0.1,0.1-0.1
			s0.1,0,0.2,0s0.2,0,0.4,0c0.1,0,0.3,0,0.3,0s0.2,0,0.2,0s0.1,0,0.1,0.1s0,0.1,0.1,0.1l1.9,6.5l0,0.1l0-0.1l1.9-6.5
			c0-0.1,0-0.1,0.1-0.1s0.1-0.1,0.1-0.1s0.1,0,0.2,0s0.2,0,0.4,0c0.1,0,0.3,0,0.3,0s0.2,0,0.2,0s0.1,0,0.1,0.1
			S368.3,133.3,368.3,133.4z"/>
		<path class="st7" d="M376.2,137c0,0.2-0.1,0.4-0.2,0.5s-0.2,0.1-0.4,0.1h-5.2c0,0.4,0,0.8,0.1,1.2s0.2,0.7,0.4,0.9
			c0.2,0.3,0.5,0.4,0.8,0.6c0.3,0.1,0.7,0.2,1.2,0.2c0.4,0,0.7,0,1-0.1s0.5-0.1,0.8-0.2s0.4-0.1,0.5-0.2c0.1-0.1,0.2-0.1,0.3-0.1
			c0,0,0.1,0,0.1,0c0,0,0.1,0.1,0.1,0.1s0,0.1,0,0.2s0,0.2,0,0.3c0,0.1,0,0.1,0,0.2s0,0.1,0,0.1s0,0.1,0,0.1s0,0.1-0.1,0.1
			s-0.1,0.1-0.3,0.2s-0.4,0.1-0.6,0.2s-0.5,0.1-0.9,0.2s-0.7,0.1-1.1,0.1c-0.7,0-1.2-0.1-1.7-0.3s-0.9-0.5-1.2-0.8s-0.6-0.8-0.8-1.3
			s-0.3-1.2-0.3-1.9c0-0.7,0.1-1.3,0.3-1.8s0.4-1,0.8-1.4s0.7-0.7,1.2-0.9s1-0.3,1.6-0.3c0.6,0,1.1,0.1,1.6,0.3s0.8,0.5,1.1,0.8
			s0.5,0.7,0.6,1.2s0.2,0.9,0.2,1.5V137z M374.7,136.6c0-0.8-0.2-1.4-0.5-1.8c-0.4-0.4-0.9-0.7-1.6-0.7c-0.4,0-0.7,0.1-0.9,0.2
			s-0.5,0.3-0.7,0.5c-0.2,0.2-0.3,0.5-0.4,0.8s-0.2,0.6-0.2,0.9H374.7z"/>
		<path class="st7" d="M385,137.2c0,0.7-0.1,1.3-0.2,1.9s-0.4,1-0.7,1.4s-0.6,0.7-1.1,0.9s-0.9,0.3-1.5,0.3c-0.3,0-0.5,0-0.7-0.1
			s-0.4-0.1-0.6-0.2s-0.4-0.3-0.6-0.4s-0.4-0.4-0.7-0.6v1c0,0,0,0.1,0,0.1s-0.1,0.1-0.1,0.1s-0.1,0-0.2,0s-0.2,0-0.3,0
			c-0.1,0-0.2,0-0.3,0s-0.1,0-0.2,0s-0.1,0-0.1-0.1s0-0.1,0-0.1v-11.7c0,0,0-0.1,0-0.1s0.1-0.1,0.1-0.1s0.1,0,0.2-0.1s0.2,0,0.4,0
			c0.1,0,0.3,0,0.4,0s0.2,0,0.2,0.1s0.1,0.1,0.1,0.1s0,0.1,0,0.1v4.7c0.2-0.2,0.5-0.4,0.7-0.6s0.4-0.3,0.6-0.4s0.4-0.2,0.6-0.2
			s0.4-0.1,0.7-0.1c0.6,0,1.1,0.1,1.5,0.3s0.7,0.5,1,0.9s0.4,0.8,0.6,1.3S385,136.7,385,137.2z M383.5,137.4c0-0.4,0-0.8-0.1-1.2
			c-0.1-0.4-0.2-0.7-0.3-1s-0.4-0.5-0.6-0.7s-0.6-0.3-0.9-0.3c-0.2,0-0.4,0-0.6,0.1c-0.2,0.1-0.4,0.1-0.6,0.3
			c-0.2,0.1-0.4,0.3-0.6,0.5c-0.2,0.2-0.4,0.4-0.6,0.7v3.2c0.4,0.5,0.8,0.9,1.1,1.1c0.4,0.3,0.7,0.4,1.1,0.4c0.4,0,0.7-0.1,0.9-0.3
			s0.5-0.4,0.6-0.7s0.3-0.6,0.4-1C383.5,138.1,383.5,137.8,383.5,137.4z"/>
		<path class="st7" d="M391.5,139.2c0,0.4-0.1,0.8-0.2,1.1s-0.4,0.6-0.6,0.8s-0.6,0.4-1,0.5s-0.8,0.2-1.3,0.2c-0.3,0-0.5,0-0.8-0.1
			s-0.5-0.1-0.7-0.2s-0.4-0.1-0.5-0.2s-0.2-0.1-0.3-0.2s-0.1-0.1-0.1-0.2s0-0.2,0-0.4c0-0.1,0-0.2,0-0.3s0-0.1,0-0.2s0-0.1,0.1-0.1
			s0.1,0,0.1,0c0.1,0,0.2,0,0.3,0.1s0.3,0.2,0.5,0.3s0.4,0.2,0.7,0.3s0.5,0.1,0.9,0.1c0.2,0,0.5,0,0.7-0.1s0.4-0.1,0.5-0.2
			s0.3-0.2,0.3-0.4s0.1-0.3,0.1-0.6c0-0.2-0.1-0.4-0.2-0.6s-0.3-0.3-0.5-0.4s-0.4-0.2-0.6-0.3s-0.5-0.2-0.7-0.3s-0.5-0.2-0.7-0.3
			s-0.4-0.3-0.6-0.5s-0.3-0.4-0.5-0.7s-0.2-0.6-0.2-0.9c0-0.3,0.1-0.6,0.2-0.9s0.3-0.5,0.5-0.7s0.5-0.4,0.9-0.5s0.8-0.2,1.3-0.2
			c0.2,0,0.4,0,0.6,0.1s0.4,0.1,0.6,0.1s0.3,0.1,0.4,0.2s0.2,0.1,0.3,0.2s0.1,0.1,0.1,0.1s0,0.1,0,0.1s0,0.1,0,0.2s0,0.1,0,0.2
			c0,0.1,0,0.2,0,0.3s0,0.1,0,0.2s0,0.1-0.1,0.1s-0.1,0-0.1,0c-0.1,0-0.1,0-0.2-0.1s-0.2-0.1-0.4-0.2s-0.3-0.1-0.6-0.2
			s-0.5-0.1-0.7-0.1c-0.2,0-0.5,0-0.7,0.1s-0.3,0.1-0.5,0.2s-0.2,0.2-0.3,0.4s-0.1,0.3-0.1,0.5c0,0.2,0.1,0.4,0.2,0.6
			s0.3,0.3,0.5,0.4s0.4,0.2,0.6,0.3s0.5,0.2,0.7,0.3s0.5,0.2,0.7,0.3s0.5,0.3,0.6,0.4s0.3,0.4,0.5,0.6S391.5,138.8,391.5,139.2z"/>
		<path class="st7" d="M399.7,137c0,0.2-0.1,0.4-0.2,0.5s-0.2,0.1-0.4,0.1h-5.2c0,0.4,0,0.8,0.1,1.2s0.2,0.7,0.4,0.9
			c0.2,0.3,0.5,0.4,0.8,0.6c0.3,0.1,0.7,0.2,1.2,0.2c0.4,0,0.7,0,1-0.1s0.5-0.1,0.8-0.2s0.4-0.1,0.5-0.2c0.1-0.1,0.2-0.1,0.3-0.1
			c0,0,0.1,0,0.1,0c0,0,0.1,0.1,0.1,0.1s0,0.1,0,0.2s0,0.2,0,0.3c0,0.1,0,0.1,0,0.2s0,0.1,0,0.1s0,0.1,0,0.1s0,0.1-0.1,0.1
			s-0.1,0.1-0.3,0.2s-0.4,0.1-0.6,0.2s-0.5,0.1-0.9,0.2s-0.7,0.1-1.1,0.1c-0.7,0-1.2-0.1-1.7-0.3s-0.9-0.5-1.2-0.8s-0.6-0.8-0.8-1.3
			s-0.3-1.2-0.3-1.9c0-0.7,0.1-1.3,0.3-1.8s0.4-1,0.8-1.4s0.7-0.7,1.2-0.9s1-0.3,1.6-0.3c0.6,0,1.1,0.1,1.6,0.3s0.8,0.5,1.1,0.8
			s0.5,0.7,0.6,1.2s0.2,0.9,0.2,1.5V137z M398.3,136.6c0-0.8-0.2-1.4-0.5-1.8c-0.4-0.4-0.9-0.7-1.6-0.7c-0.4,0-0.7,0.1-0.9,0.2
			s-0.5,0.3-0.7,0.5c-0.2,0.2-0.3,0.5-0.4,0.8s-0.2,0.6-0.2,0.9H398.3z"/>
		<path class="st7" d="M405.9,133.9c0,0.1,0,0.2,0,0.3s0,0.2,0,0.2s0,0.1-0.1,0.1s-0.1,0-0.1,0s-0.1,0-0.2,0s-0.1-0.1-0.2-0.1
			s-0.2-0.1-0.3-0.1s-0.2,0-0.3,0c-0.1,0-0.3,0-0.4,0.1s-0.3,0.2-0.4,0.3s-0.3,0.3-0.5,0.5s-0.4,0.5-0.6,0.8v5.2c0,0,0,0.1,0,0.1
			s-0.1,0.1-0.1,0.1s-0.1,0-0.2,0.1s-0.2,0-0.4,0c-0.1,0-0.3,0-0.4,0s-0.2,0-0.2-0.1s-0.1-0.1-0.1-0.1s0-0.1,0-0.1v-7.9
			c0,0,0-0.1,0-0.1s0.1-0.1,0.1-0.1s0.1,0,0.2-0.1s0.2,0,0.3,0c0.1,0,0.2,0,0.3,0s0.2,0,0.2,0.1s0.1,0.1,0.1,0.1s0,0.1,0,0.1v1.2
			c0.2-0.3,0.4-0.6,0.6-0.8s0.4-0.4,0.5-0.5s0.3-0.2,0.5-0.2s0.3-0.1,0.5-0.1c0.1,0,0.2,0,0.3,0s0.2,0,0.3,0s0.2,0,0.3,0.1
			s0.1,0.1,0.2,0.1s0.1,0.1,0.1,0.1s0,0.1,0,0.1s0,0.1,0,0.2S405.9,133.8,405.9,133.9z"/>
		<path class="st7" d="M413.4,133.4C413.4,133.4,413.4,133.4,413.4,133.4c0,0.1,0,0.1,0,0.2s0,0.1,0,0.1s0,0.1,0,0.1l-2.7,7.5
			c0,0.1-0.1,0.1-0.1,0.2s-0.1,0.1-0.2,0.1s-0.2,0-0.3,0s-0.3,0-0.4,0s-0.3,0-0.4,0s-0.2,0-0.3-0.1s-0.1-0.1-0.2-0.1
			s-0.1-0.1-0.1-0.1l-2.7-7.5c0-0.1,0-0.1-0.1-0.2s0-0.1,0-0.1s0,0,0-0.1c0,0,0-0.1,0-0.1s0.1-0.1,0.1-0.1s0.1,0,0.2,0s0.2,0,0.3,0
			c0.2,0,0.3,0,0.4,0s0.2,0,0.2,0s0.1,0.1,0.1,0.1s0.1,0.1,0.1,0.1l2.2,6.5l0,0.1l0-0.1l2.2-6.5c0-0.1,0-0.1,0.1-0.1
			s0.1-0.1,0.1-0.1s0.1,0,0.2,0s0.2,0,0.4,0c0.1,0,0.2,0,0.3,0s0.2,0,0.2,0s0.1,0.1,0.1,0.1S413.4,133.3,413.4,133.4z"/>
		<path class="st7" d="M421.1,137c0,0.2-0.1,0.4-0.2,0.5s-0.2,0.1-0.4,0.1h-5.2c0,0.4,0,0.8,0.1,1.2s0.2,0.7,0.4,0.9
			c0.2,0.3,0.5,0.4,0.8,0.6c0.3,0.1,0.7,0.2,1.2,0.2c0.4,0,0.7,0,1-0.1s0.5-0.1,0.8-0.2s0.4-0.1,0.5-0.2c0.1-0.1,0.2-0.1,0.3-0.1
			c0,0,0.1,0,0.1,0c0,0,0.1,0.1,0.1,0.1s0,0.1,0,0.2s0,0.2,0,0.3c0,0.1,0,0.1,0,0.2s0,0.1,0,0.1s0,0.1,0,0.1s0,0.1-0.1,0.1
			s-0.1,0.1-0.3,0.2s-0.4,0.1-0.6,0.2s-0.5,0.1-0.9,0.2s-0.7,0.1-1.1,0.1c-0.7,0-1.2-0.1-1.7-0.3s-0.9-0.5-1.2-0.8s-0.6-0.8-0.8-1.3
			s-0.3-1.2-0.3-1.9c0-0.7,0.1-1.3,0.3-1.8s0.4-1,0.8-1.4s0.7-0.7,1.2-0.9s1-0.3,1.6-0.3c0.6,0,1.1,0.1,1.6,0.3s0.8,0.5,1.1,0.8
			s0.5,0.7,0.6,1.2s0.2,0.9,0.2,1.5V137z M419.7,136.6c0-0.8-0.2-1.4-0.5-1.8c-0.4-0.4-0.9-0.7-1.6-0.7c-0.4,0-0.7,0.1-0.9,0.2
			s-0.5,0.3-0.7,0.5c-0.2,0.2-0.3,0.5-0.4,0.8s-0.2,0.6-0.2,0.9H419.7z"/>
		<path class="st7" d="M427.3,133.9c0,0.1,0,0.2,0,0.3s0,0.2,0,0.2s0,0.1-0.1,0.1s-0.1,0-0.1,0s-0.1,0-0.2,0s-0.1-0.1-0.2-0.1
			s-0.2-0.1-0.3-0.1s-0.2,0-0.3,0c-0.1,0-0.3,0-0.4,0.1s-0.3,0.2-0.4,0.3s-0.3,0.3-0.5,0.5s-0.4,0.5-0.6,0.8v5.2c0,0,0,0.1,0,0.1
			s-0.1,0.1-0.1,0.1s-0.1,0-0.2,0.1s-0.2,0-0.4,0c-0.1,0-0.3,0-0.4,0s-0.2,0-0.2-0.1s-0.1-0.1-0.1-0.1s0-0.1,0-0.1v-7.9
			c0,0,0-0.1,0-0.1s0.1-0.1,0.1-0.1s0.1,0,0.2-0.1s0.2,0,0.3,0c0.1,0,0.2,0,0.3,0s0.2,0,0.2,0.1s0.1,0.1,0.1,0.1s0,0.1,0,0.1v1.2
			c0.2-0.3,0.4-0.6,0.6-0.8s0.4-0.4,0.5-0.5s0.3-0.2,0.5-0.2s0.3-0.1,0.5-0.1c0.1,0,0.2,0,0.3,0s0.2,0,0.3,0s0.2,0,0.3,0.1
			s0.1,0.1,0.2,0.1s0.1,0.1,0.1,0.1s0,0.1,0,0.1s0,0.1,0,0.2S427.3,133.8,427.3,133.9z"/>
	</g>
	<path class="st4" d="M572.4,61.7c0-5.1,4.1-9.2,9.2-9.2h147.2c5.1,0,9.2,4.1,9.2,9.2v36.8c0,5.1-4.1,9.2-9.2,9.2H581.6
		c-5.1,0-9.2-4.1-9.2-9.2V61.7z"/>
	<path class="st5" d="M572.4,61.7c0-5.1,4.1-9.2,9.2-9.2h147.2c5.1,0,9.2,4.1,9.2,9.2v36.8c0,5.1-4.1,9.2-9.2,9.2H581.6
		c-5.1,0-9.2-4.1-9.2-9.2V61.7z"/>
	<g class="st6">
		<path class="st7" d="M653.1,85.8c0,0.1,0.1,0.2,0.1,0.3s0,0.1-0.1,0.2s-0.1,0.1-0.2,0.1s-0.3,0-0.4,0s-0.3,0-0.4,0s-0.2,0-0.2,0
			s-0.1,0-0.1-0.1s-0.1-0.1-0.1-0.1l-1-2.8h-4.7l-0.9,2.7c0,0.1,0,0.1-0.1,0.1s-0.1,0.1-0.1,0.1s-0.1,0-0.2,0.1s-0.2,0-0.4,0
			c-0.2,0-0.3,0-0.4,0s-0.2,0-0.2-0.1s-0.1-0.1-0.1-0.2s0-0.2,0.1-0.3l3.8-10.6c0-0.1,0.1-0.1,0.1-0.2s0.1-0.1,0.2-0.1s0.2,0,0.3,0
			s0.3,0,0.4,0c0.2,0,0.3,0,0.5,0s0.2,0,0.3,0s0.1,0.1,0.2,0.1s0.1,0.1,0.1,0.2L653.1,85.8z M648.3,76.5L648.3,76.5l-2,5.7h4
			L648.3,76.5z"/>
		<path class="st7" d="M662,78.3c0,0.6-0.1,1.1-0.3,1.5s-0.5,0.8-0.8,1.2s-0.8,0.6-1.3,0.7s-1.1,0.3-1.8,0.3h-1.3v4.1
			c0,0,0,0.1,0,0.1s-0.1,0.1-0.1,0.1s-0.1,0-0.2,0.1s-0.2,0-0.4,0s-0.3,0-0.4,0s-0.2,0-0.2-0.1s-0.1,0-0.1-0.1s0-0.1,0-0.1V75.6
			c0-0.2,0.1-0.4,0.2-0.5s0.3-0.1,0.4-0.1h2.4c0.2,0,0.5,0,0.7,0s0.5,0.1,0.8,0.1s0.6,0.2,0.9,0.4s0.6,0.4,0.8,0.7s0.4,0.6,0.5,0.9
			S662,77.9,662,78.3z M660.4,78.4c0-0.5-0.1-0.8-0.3-1.2s-0.4-0.5-0.6-0.7s-0.5-0.2-0.8-0.3s-0.5-0.1-0.8-0.1h-1.4v4.6h1.4
			c0.5,0,0.8-0.1,1.1-0.2s0.6-0.3,0.8-0.5s0.4-0.5,0.5-0.7S660.4,78.8,660.4,78.4z"/>
		<path class="st7" d="M665.9,86.1c0,0,0,0.1,0,0.1s-0.1,0.1-0.1,0.1s-0.1,0-0.2,0.1s-0.2,0-0.4,0c-0.1,0-0.3,0-0.4,0
			s-0.2,0-0.2-0.1s-0.1,0-0.1-0.1s0-0.1,0-0.1V75.2c0,0,0-0.1,0-0.1s0.1-0.1,0.1-0.1s0.1,0,0.2-0.1s0.2,0,0.3,0c0.1,0,0.3,0,0.4,0
			s0.2,0,0.2,0.1s0.1,0,0.1,0.1s0,0.1,0,0.1V86.1z"/>
	</g>
	<polygon class="st8" points="474.8,135.3 484.8,134.8 483.3,132.2 565.3,85.9 566.8,88.5 572.4,80.1 562.3,80.6 563.8,83.3 
		481.9,129.6 480.4,127 	"/>
	<path class="st4" d="M45.9,61.7c0-5.1,4.1-9.2,9.2-9.2h147.2c5.1,0,9.2,4.1,9.2,9.2v36.8c0,5.1-4.1,9.2-9.2,9.2H55.1
		c-5.1,0-9.2-4.1-9.2-9.2V61.7z"/>
	<path class="st5" d="M45.9,61.7c0-5.1,4.1-9.2,9.2-9.2h147.2c5.1,0,9.2,4.1,9.2,9.2v36.8c0,5.1-4.1,9.2-9.2,9.2H55.1
		c-5.1,0-9.2-4.1-9.2-9.2V61.7z"/>
	<g class="st6">
		<path class="st7" d="M136.7,80.5c0,1-0.1,1.8-0.4,2.6s-0.6,1.3-1.1,1.8s-1.1,0.8-1.8,1.1s-1.5,0.4-2.5,0.4h-2.4
			c-0.1,0-0.3,0-0.4-0.1s-0.2-0.3-0.2-0.5V75.6c0-0.2,0.1-0.4,0.2-0.5s0.2-0.1,0.4-0.1h2.6c1,0,1.8,0.1,2.5,0.4s1.2,0.6,1.7,1.1
			s0.8,1.1,1,1.7S136.7,79.6,136.7,80.5z M135.1,80.5c0-0.6-0.1-1.2-0.2-1.7s-0.4-1-0.7-1.4s-0.7-0.7-1.2-0.9s-1.1-0.3-1.9-0.3h-1.5
			v8.9h1.6c0.7,0,1.3-0.1,1.8-0.3s0.9-0.5,1.2-0.8s0.6-0.8,0.8-1.4S135.1,81.3,135.1,80.5z"/>
		<path class="st7" d="M144.8,86.1c0,0.1,0,0.1-0.1,0.2s-0.1,0.1-0.2,0.1s-0.2,0-0.4,0c-0.2,0-0.3,0-0.4,0s-0.2,0-0.2-0.1
			s-0.1-0.1-0.1-0.2v-0.8c-0.3,0.4-0.7,0.7-1.2,0.9s-0.9,0.3-1.3,0.3c-0.4,0-0.8-0.1-1.1-0.2s-0.6-0.3-0.9-0.5s-0.4-0.5-0.6-0.8
			s-0.2-0.6-0.2-1c0-0.4,0.1-0.8,0.3-1.2s0.4-0.6,0.8-0.8s0.8-0.4,1.2-0.5s1-0.2,1.7-0.2h1.1v-0.6c0-0.3,0-0.6-0.1-0.8
			s-0.2-0.4-0.3-0.6s-0.3-0.3-0.6-0.4s-0.5-0.1-0.8-0.1c-0.4,0-0.7,0-1,0.1s-0.5,0.2-0.7,0.3s-0.4,0.2-0.5,0.3s-0.3,0.1-0.3,0.1
			c0,0-0.1,0-0.1,0s-0.1-0.1-0.1-0.1s0-0.1-0.1-0.2s0-0.2,0-0.2c0-0.1,0-0.3,0-0.3s0.1-0.2,0.1-0.2s0.2-0.2,0.4-0.3s0.4-0.2,0.7-0.3
			s0.5-0.2,0.8-0.2s0.6-0.1,0.9-0.1c0.6,0,1.1,0.1,1.5,0.2s0.7,0.3,1,0.6s0.4,0.6,0.5,0.9s0.2,0.8,0.2,1.3V86.1z M143.4,82.5h-1.2
			c-0.4,0-0.7,0-1,0.1s-0.5,0.2-0.7,0.3s-0.3,0.3-0.4,0.5s-0.1,0.4-0.1,0.6c0,0.4,0.1,0.7,0.4,1s0.6,0.4,1.1,0.4
			c0.4,0,0.7-0.1,1.1-0.3s0.7-0.5,1-0.9V82.5z"/>
		<path class="st7" d="M151.7,85.5c0,0.2,0,0.3,0,0.4s-0.1,0.2-0.1,0.2s-0.1,0.1-0.2,0.1s-0.2,0.1-0.3,0.1s-0.2,0-0.4,0.1
			s-0.3,0-0.4,0c-0.4,0-0.8-0.1-1.1-0.2s-0.5-0.3-0.7-0.5s-0.3-0.5-0.4-0.8s-0.1-0.7-0.1-1.2v-4.6h-1.1c-0.1,0-0.2,0-0.2-0.1
			s-0.1-0.2-0.1-0.5c0-0.1,0-0.2,0-0.3s0-0.1,0.1-0.2s0.1-0.1,0.1-0.1s0.1,0,0.1,0h1.1v-1.9c0,0,0-0.1,0-0.1s0.1-0.1,0.1-0.1
			s0.1,0,0.2-0.1s0.2,0,0.4,0c0.1,0,0.3,0,0.4,0s0.2,0,0.2,0.1s0.1,0.1,0.1,0.1s0,0.1,0,0.1V78h2c0,0,0.1,0,0.1,0s0.1,0.1,0.1,0.1
			s0,0.1,0.1,0.2s0,0.2,0,0.3c0,0.2,0,0.4-0.1,0.5s-0.1,0.1-0.2,0.1h-2v4.4c0,0.5,0.1,1,0.2,1.2s0.4,0.4,0.9,0.4c0.1,0,0.3,0,0.4,0
			s0.2-0.1,0.3-0.1s0.2-0.1,0.2-0.1s0.1,0,0.2,0c0,0,0.1,0,0.1,0s0,0,0.1,0.1s0,0.1,0,0.2S151.7,85.4,151.7,85.5z"/>
		<path class="st7" d="M159.6,86.1c0,0.1,0,0.1-0.1,0.2s-0.1,0.1-0.2,0.1s-0.2,0-0.4,0c-0.2,0-0.3,0-0.4,0s-0.2,0-0.2-0.1
			s-0.1-0.1-0.1-0.2v-0.8c-0.3,0.4-0.7,0.7-1.2,0.9s-0.9,0.3-1.3,0.3c-0.4,0-0.8-0.1-1.1-0.2s-0.6-0.3-0.9-0.5s-0.4-0.5-0.6-0.8
			s-0.2-0.6-0.2-1c0-0.4,0.1-0.8,0.3-1.2s0.4-0.6,0.8-0.8s0.8-0.4,1.2-0.5s1-0.2,1.7-0.2h1.1v-0.6c0-0.3,0-0.6-0.1-0.8
			s-0.2-0.4-0.3-0.6s-0.3-0.3-0.6-0.4s-0.5-0.1-0.8-0.1c-0.4,0-0.7,0-1,0.1s-0.5,0.2-0.7,0.3s-0.4,0.2-0.5,0.3s-0.3,0.1-0.3,0.1
			c0,0-0.1,0-0.1,0s-0.1-0.1-0.1-0.1s0-0.1-0.1-0.2s0-0.2,0-0.2c0-0.1,0-0.3,0-0.3s0.1-0.2,0.1-0.2s0.2-0.2,0.4-0.3s0.4-0.2,0.7-0.3
			s0.5-0.2,0.8-0.2s0.6-0.1,0.9-0.1c0.6,0,1.1,0.1,1.5,0.2s0.7,0.3,1,0.6s0.4,0.6,0.5,0.9s0.2,0.8,0.2,1.3V86.1z M158.1,82.5h-1.2
			c-0.4,0-0.7,0-1,0.1s-0.5,0.2-0.7,0.3s-0.3,0.3-0.4,0.5s-0.1,0.4-0.1,0.6c0,0.4,0.1,0.7,0.4,1s0.6,0.4,1.1,0.4
			c0.4,0,0.7-0.1,1.1-0.3s0.7-0.5,1-0.9V82.5z"/>
		<path class="st7" d="M169.5,82c0,0.7-0.1,1.3-0.2,1.9s-0.4,1-0.7,1.4s-0.6,0.7-1.1,0.9s-0.9,0.3-1.5,0.3c-0.3,0-0.5,0-0.7-0.1
			s-0.4-0.1-0.6-0.2s-0.4-0.3-0.6-0.4s-0.4-0.4-0.7-0.6v1c0,0,0,0.1,0,0.1s-0.1,0.1-0.1,0.1s-0.1,0-0.2,0s-0.2,0-0.3,0
			c-0.1,0-0.2,0-0.3,0s-0.1,0-0.2,0s-0.1,0-0.1-0.1s0-0.1,0-0.1V74.4c0,0,0-0.1,0-0.1s0.1-0.1,0.1-0.1s0.1,0,0.2-0.1s0.2,0,0.4,0
			c0.1,0,0.3,0,0.4,0s0.2,0,0.2,0.1s0.1,0.1,0.1,0.1s0,0.1,0,0.1v4.7c0.2-0.2,0.5-0.4,0.7-0.6s0.4-0.3,0.6-0.4s0.4-0.2,0.6-0.2
			s0.4-0.1,0.7-0.1c0.6,0,1.1,0.1,1.5,0.3s0.7,0.5,1,0.9s0.4,0.8,0.6,1.3S169.5,81.5,169.5,82z M168,82.2c0-0.4,0-0.8-0.1-1.2
			c-0.1-0.4-0.2-0.7-0.3-1s-0.4-0.5-0.6-0.7s-0.6-0.3-0.9-0.3c-0.2,0-0.4,0-0.6,0.1c-0.2,0.1-0.4,0.1-0.6,0.3
			c-0.2,0.1-0.4,0.3-0.6,0.5c-0.2,0.2-0.4,0.4-0.6,0.7v3.2c0.4,0.5,0.8,0.9,1.1,1.1c0.4,0.3,0.7,0.4,1.1,0.4c0.4,0,0.7-0.1,0.9-0.3
			s0.5-0.4,0.6-0.7s0.3-0.6,0.4-1C168,82.9,168,82.6,168,82.2z"/>
		<path class="st7" d="M177.7,86.1c0,0.1,0,0.1-0.1,0.2s-0.1,0.1-0.2,0.1s-0.2,0-0.4,0c-0.2,0-0.3,0-0.4,0s-0.2,0-0.2-0.1
			s-0.1-0.1-0.1-0.2v-0.8c-0.3,0.4-0.7,0.7-1.2,0.9s-0.9,0.3-1.3,0.3c-0.4,0-0.8-0.1-1.1-0.2s-0.6-0.3-0.9-0.5s-0.4-0.5-0.6-0.8
			s-0.2-0.6-0.2-1c0-0.4,0.1-0.8,0.3-1.2s0.4-0.6,0.8-0.8s0.8-0.4,1.2-0.5s1-0.2,1.7-0.2h1.1v-0.6c0-0.3,0-0.6-0.1-0.8
			s-0.2-0.4-0.3-0.6s-0.3-0.3-0.6-0.4s-0.5-0.1-0.8-0.1c-0.4,0-0.7,0-1,0.1s-0.5,0.2-0.7,0.3s-0.4,0.2-0.5,0.3s-0.3,0.1-0.3,0.1
			c0,0-0.1,0-0.1,0s-0.1-0.1-0.1-0.1s0-0.1-0.1-0.2s0-0.2,0-0.2c0-0.1,0-0.3,0-0.3s0.1-0.2,0.1-0.2s0.2-0.2,0.4-0.3s0.4-0.2,0.7-0.3
			s0.5-0.2,0.8-0.2s0.6-0.1,0.9-0.1c0.6,0,1.1,0.1,1.5,0.2s0.7,0.3,1,0.6s0.4,0.6,0.5,0.9s0.2,0.8,0.2,1.3V86.1z M176.3,82.5H175
			c-0.4,0-0.7,0-1,0.1s-0.5,0.2-0.7,0.3s-0.3,0.3-0.4,0.5s-0.1,0.4-0.1,0.6c0,0.4,0.1,0.7,0.4,1s0.6,0.4,1.1,0.4
			c0.4,0,0.7-0.1,1.1-0.3s0.7-0.5,1-0.9V82.5z"/>
		<path class="st7" d="M185.4,84c0,0.4-0.1,0.8-0.2,1.1s-0.4,0.6-0.6,0.8s-0.6,0.4-1,0.5s-0.8,0.2-1.3,0.2c-0.3,0-0.5,0-0.8-0.1
			s-0.5-0.1-0.7-0.2s-0.4-0.1-0.5-0.2s-0.2-0.1-0.3-0.2s-0.1-0.1-0.1-0.2s0-0.2,0-0.4c0-0.1,0-0.2,0-0.3s0-0.1,0-0.2s0-0.1,0.1-0.1
			s0.1,0,0.1,0c0.1,0,0.2,0,0.3,0.1s0.3,0.2,0.5,0.3s0.4,0.2,0.7,0.3s0.5,0.1,0.9,0.1c0.2,0,0.5,0,0.7-0.1s0.4-0.1,0.5-0.2
			s0.3-0.2,0.3-0.4s0.1-0.3,0.1-0.6c0-0.2-0.1-0.4-0.2-0.6s-0.3-0.3-0.5-0.4s-0.4-0.2-0.6-0.3s-0.5-0.2-0.7-0.3s-0.5-0.2-0.7-0.3
			s-0.4-0.3-0.6-0.5s-0.3-0.4-0.5-0.7s-0.2-0.6-0.2-0.9c0-0.3,0.1-0.6,0.2-0.9s0.3-0.5,0.5-0.7s0.5-0.4,0.9-0.5s0.8-0.2,1.3-0.2
			c0.2,0,0.4,0,0.6,0.1s0.4,0.1,0.6,0.1s0.3,0.1,0.4,0.2s0.2,0.1,0.3,0.2s0.1,0.1,0.1,0.1s0,0.1,0,0.1s0,0.1,0,0.2s0,0.1,0,0.2
			c0,0.1,0,0.2,0,0.3s0,0.1,0,0.2s0,0.1-0.1,0.1s-0.1,0-0.1,0c-0.1,0-0.1,0-0.2-0.1s-0.2-0.1-0.4-0.2s-0.3-0.1-0.6-0.2
			s-0.5-0.1-0.7-0.1c-0.2,0-0.5,0-0.7,0.1s-0.3,0.1-0.5,0.2s-0.2,0.2-0.3,0.4s-0.1,0.3-0.1,0.5c0,0.2,0.1,0.4,0.2,0.6
			s0.3,0.3,0.5,0.4s0.4,0.2,0.6,0.3s0.5,0.2,0.7,0.3s0.5,0.2,0.7,0.3s0.5,0.3,0.6,0.4s0.3,0.4,0.5,0.6S185.4,83.6,185.4,84z"/>
		<path class="st7" d="M194.2,81.8c0,0.2-0.1,0.4-0.2,0.5s-0.2,0.1-0.4,0.1h-5.2c0,0.4,0,0.8,0.1,1.2s0.2,0.7,0.4,0.9
			c0.2,0.3,0.5,0.4,0.8,0.6c0.3,0.1,0.7,0.2,1.2,0.2c0.4,0,0.7,0,1-0.1s0.5-0.1,0.8-0.2s0.4-0.1,0.5-0.2c0.1-0.1,0.2-0.1,0.3-0.1
			c0,0,0.1,0,0.1,0c0,0,0.1,0.1,0.1,0.1s0,0.1,0,0.2s0,0.2,0,0.3c0,0.1,0,0.1,0,0.2s0,0.1,0,0.1s0,0.1,0,0.1s0,0.1-0.1,0.1
			s-0.1,0.1-0.3,0.2s-0.4,0.1-0.6,0.2s-0.5,0.1-0.9,0.2s-0.7,0.1-1.1,0.1c-0.7,0-1.2-0.1-1.7-0.3s-0.9-0.5-1.2-0.8s-0.6-0.8-0.8-1.3
			s-0.3-1.2-0.3-1.9c0-0.7,0.1-1.3,0.3-1.8s0.4-1,0.8-1.4s0.7-0.7,1.2-0.9s1-0.3,1.6-0.3c0.6,0,1.1,0.1,1.6,0.3s0.8,0.5,1.1,0.8
			s0.5,0.7,0.6,1.2s0.2,0.9,0.2,1.5V81.8z M192.8,81.4c0-0.8-0.2-1.4-0.5-1.8c-0.4-0.4-0.9-0.7-1.6-0.7c-0.4,0-0.7,0.1-0.9,0.2
			s-0.5,0.3-0.7,0.5c-0.2,0.2-0.3,0.5-0.4,0.8s-0.2,0.6-0.2,0.9H192.8z"/>
	</g>
	<path class="st8" d="M53.2,89.1c0,1,12.2,1.8,27.3,1.8s27.3-0.8,27.3-1.8v10.8c0,1-12.2,1.8-27.3,1.8s-27.3-0.8-27.3-1.8V89.1z"/>
	<ellipse class="st9" cx="80.5" cy="89.1" rx="27.3" ry="1.8"/>
	<path class="st10" d="M107.8,89.1v10.8c0,1-12.2,1.8-27.3,1.8s-27.3-0.8-27.3-1.8V89.1 M107.8,89.1c0,1-12.2,1.8-27.3,1.8
		s-27.3-0.8-27.3-1.8c0-1,12.2-1.8,27.3-1.8S107.8,88.1,107.8,89.1z"/>
	<path class="st8" d="M53.2,74.7c0,1,12.2,1.8,27.3,1.8s27.3-0.8,27.3-1.8v10.8c0,1-12.2,1.8-27.3,1.8s-27.3-0.8-27.3-1.8V74.7z"/>
	<ellipse class="st9" cx="80.5" cy="74.7" rx="27.3" ry="1.8"/>
	<path class="st10" d="M107.8,74.7v10.8c0,1-12.2,1.8-27.3,1.8s-27.3-0.8-27.3-1.8V74.7 M107.8,74.7c0,1-12.2,1.8-27.3,1.8
		s-27.3-0.8-27.3-1.8c0-1,12.2-1.8,27.3-1.8S107.8,73.7,107.8,74.7z"/>
	<path class="st8" d="M53.2,60.3c0,1,12.2,1.8,27.3,1.8s27.3-0.8,27.3-1.8v10.8c0,1-12.2,1.8-27.3,1.8s-27.3-0.8-27.3-1.8V60.3z"/>
	<ellipse class="st9" cx="80.5" cy="60.3" rx="27.3" ry="1.8"/>
	<path class="st10" d="M107.8,60.3v10.8c0,1-12.2,1.8-27.3,1.8s-27.3-0.8-27.3-1.8V60.3 M107.8,60.3c0,1-12.2,1.8-27.3,1.8
		s-27.3-0.8-27.3-1.8c0-1,12.2-1.8,27.3-1.8S107.8,59.3,107.8,60.3z"/>
	<polygon class="st8" points="211.5,80.1 221.6,80.6 220.1,83.3 302,129.6 303.5,127 309.1,135.3 299.1,134.8 300.6,132.2 
		218.6,85.9 217.1,88.5 	"/>
	<path class="st4" d="M572.4,172.1c0-5.1,4.1-9.2,9.2-9.2h147.2c5.1,0,9.2,4.1,9.2,9.2v36.8c0,5.1-4.1,9.2-9.2,9.2H581.6
		c-5.1,0-9.2-4.1-9.2-9.2V172.1z"/>
	<path class="st5" d="M572.4,172.1c0-5.1,4.1-9.2,9.2-9.2h147.2c5.1,0,9.2,4.1,9.2,9.2v36.8c0,5.1-4.1,9.2-9.2,9.2H581.6
		c-5.1,0-9.2-4.1-9.2-9.2V172.1z"/>
	<g class="st6">
		<path class="st7" d="M657.2,192.5c0,0.7-0.1,1.3-0.3,1.9s-0.5,1-0.9,1.4s-0.8,0.7-1.4,0.9s-1.2,0.3-1.8,0.3
			c-0.6,0-1.2-0.1-1.7-0.3s-1-0.4-1.3-0.8s-0.7-0.8-0.9-1.3s-0.3-1.1-0.3-1.8v-7.1c0,0,0-0.1,0-0.1s0.1-0.1,0.1-0.1s0.1,0,0.2-0.1
			s0.2,0,0.4,0c0.1,0,0.3,0,0.4,0s0.2,0,0.2,0.1s0.1,0,0.1,0.1s0,0.1,0,0.1v6.9c0,0.5,0.1,1,0.2,1.4s0.3,0.7,0.6,1s0.5,0.5,0.9,0.6
			s0.7,0.2,1.2,0.2c0.4,0,0.8-0.1,1.2-0.2s0.6-0.3,0.9-0.6s0.4-0.6,0.5-1s0.2-0.8,0.2-1.3v-7c0,0,0-0.1,0-0.1s0.1-0.1,0.1-0.1
			s0.1,0,0.2-0.1s0.2,0,0.4,0c0.1,0,0.3,0,0.4,0s0.2,0,0.2,0.1s0.1,0,0.1,0.1s0,0.1,0,0.1V192.5z"/>
		<path class="st7" d="M661.7,196.5c0,0,0,0.1,0,0.1s-0.1,0.1-0.1,0.1s-0.1,0-0.2,0.1s-0.2,0-0.4,0c-0.1,0-0.3,0-0.4,0
			s-0.2,0-0.2-0.1s-0.1,0-0.1-0.1s0-0.1,0-0.1v-10.9c0,0,0-0.1,0-0.1s0.1-0.1,0.1-0.1s0.1,0,0.2-0.1s0.2,0,0.3,0c0.1,0,0.3,0,0.4,0
			s0.2,0,0.2,0.1s0.1,0,0.1,0.1s0,0.1,0,0.1V196.5z"/>
	</g>
	<polygon class="st8" points="474.8,135.3 484.8,135.8 483.3,138.4 565.3,184.8 566.8,182.2 572.4,190.5 562.3,190 563.8,187.4 
		481.9,141.1 480.4,143.7 	"/>
	<path class="st4" d="M45.9,172.1c0-5.1,4.1-9.2,9.2-9.2h147.2c5.1,0,9.2,4.1,9.2,9.2v36.8c0,5.1-4.1,9.2-9.2,9.2H55.1
		c-5.1,0-9.2-4.1-9.2-9.2V172.1z"/>
	<path class="st5" d="M45.9,172.1c0-5.1,4.1-9.2,9.2-9.2h147.2c5.1,0,9.2,4.1,9.2,9.2v36.8c0,5.1-4.1,9.2-9.2,9.2H55.1
		c-5.1,0-9.2-4.1-9.2-9.2V172.1z"/>
	<g class="st6">
		<path class="st7" d="M90.9,196.2c0,0.1,0.1,0.2,0.1,0.3s0,0.1-0.1,0.2s-0.1,0.1-0.2,0.1s-0.3,0-0.4,0s-0.3,0-0.4,0s-0.2,0-0.2,0
			s-0.1,0-0.1-0.1s-0.1-0.1-0.1-0.1l-1-2.8h-4.7l-0.9,2.7c0,0.1,0,0.1-0.1,0.1s-0.1,0.1-0.1,0.1s-0.1,0-0.2,0.1s-0.2,0-0.4,0
			c-0.2,0-0.3,0-0.4,0s-0.2,0-0.2-0.1s-0.1-0.1-0.1-0.2s0-0.2,0.1-0.3l3.8-10.6c0-0.1,0.1-0.1,0.1-0.2s0.1-0.1,0.2-0.1s0.2,0,0.3,0
			s0.3,0,0.4,0c0.2,0,0.3,0,0.5,0s0.2,0,0.3,0s0.1,0.1,0.2,0.1s0.1,0.1,0.1,0.2L90.9,196.2z M86,186.9L86,186.9l-2,5.7h4L86,186.9z"
			/>
		<path class="st7" d="M96.6,196.5c0,0.1-0.1,0.1-0.1,0.2s-0.1,0.1-0.2,0.1s-0.2,0-0.3,0s-0.3,0-0.4,0c-0.1,0-0.2,0-0.3,0
			s-0.2,0-0.3,0s-0.1,0-0.2,0s-0.1,0-0.1-0.1s-0.1-0.1-0.1-0.1s0-0.1-0.1-0.1l-3.7-10.6c0-0.1-0.1-0.2-0.1-0.3s0-0.1,0.1-0.2
			s0.1-0.1,0.3-0.1s0.3,0,0.5,0c0.2,0,0.3,0,0.4,0s0.2,0,0.2,0s0.1,0.1,0.1,0.1s0.1,0.1,0.1,0.1l3.3,9.6h0l3.2-9.6
			c0-0.1,0-0.1,0.1-0.2s0.1-0.1,0.1-0.1s0.1,0,0.2,0s0.2,0,0.4,0c0.2,0,0.3,0,0.4,0s0.2,0,0.2,0.1s0.1,0.1,0,0.2s0,0.2-0.1,0.3
			L96.6,196.5z"/>
		<path class="st7" d="M107.5,193.5c0,0.5-0.1,1-0.3,1.4s-0.5,0.8-0.8,1.1s-0.8,0.5-1.2,0.7s-1,0.2-1.5,0.2c-0.4,0-0.7,0-1.1-0.1
			s-0.6-0.1-0.9-0.2s-0.5-0.2-0.6-0.3s-0.3-0.2-0.4-0.3s-0.1-0.2-0.1-0.3s0-0.3,0-0.4c0-0.1,0-0.2,0-0.3s0-0.2,0.1-0.2
			s0.1-0.1,0.1-0.1s0.1,0,0.1,0c0.1,0,0.2,0,0.3,0.1s0.3,0.2,0.6,0.3s0.5,0.2,0.8,0.3s0.7,0.2,1.1,0.2c0.3,0,0.6,0,0.9-0.1
			s0.5-0.2,0.7-0.4s0.3-0.4,0.5-0.6s0.2-0.5,0.2-0.8c0-0.3-0.1-0.6-0.2-0.8s-0.3-0.4-0.6-0.6s-0.5-0.3-0.8-0.5s-0.6-0.3-0.9-0.4
			s-0.6-0.3-0.9-0.5s-0.6-0.4-0.8-0.6s-0.4-0.5-0.6-0.9s-0.2-0.7-0.2-1.2c0-0.5,0.1-0.9,0.3-1.3s0.4-0.7,0.7-0.9s0.7-0.4,1.1-0.6
			s0.9-0.2,1.4-0.2c0.3,0,0.5,0,0.8,0.1s0.5,0.1,0.7,0.2s0.4,0.2,0.6,0.2s0.3,0.2,0.3,0.2s0.1,0.1,0.1,0.1s0,0.1,0,0.1s0,0.1,0,0.2
			s0,0.2,0,0.3c0,0.1,0,0.2,0,0.3s0,0.2,0,0.2s0,0.1-0.1,0.1s-0.1,0-0.1,0c-0.1,0-0.2,0-0.3-0.1s-0.3-0.2-0.5-0.3s-0.4-0.2-0.7-0.3
			s-0.6-0.1-0.9-0.1c-0.3,0-0.6,0-0.8,0.1s-0.4,0.2-0.6,0.3s-0.3,0.3-0.3,0.5s-0.1,0.4-0.1,0.6c0,0.3,0.1,0.6,0.2,0.8
			s0.3,0.4,0.6,0.6s0.5,0.3,0.8,0.5s0.6,0.3,0.9,0.4s0.6,0.3,0.9,0.5s0.6,0.4,0.8,0.6s0.4,0.5,0.6,0.9S107.5,193.1,107.5,193.5z"/>
		<path class="st7" d="M114.8,193.9c0,0.5,0,0.9-0.1,1.2s-0.2,0.7-0.4,1s-0.5,0.5-0.8,0.6s-0.7,0.2-1.2,0.2c-0.2,0-0.3,0-0.5,0
			s-0.3-0.1-0.4-0.1s-0.3-0.1-0.4-0.1s-0.2-0.1-0.2-0.1s-0.1-0.1-0.1-0.1s0-0.1-0.1-0.1s0-0.1,0-0.2s0-0.2,0-0.3c0-0.1,0-0.2,0-0.3
			s0-0.2,0-0.2s0.1-0.1,0.1-0.1s0.1,0,0.1,0s0.1,0,0.2,0.1s0.2,0.1,0.3,0.1s0.2,0.1,0.4,0.1s0.3,0.1,0.5,0.1c0.2,0,0.4,0,0.5-0.1
			s0.3-0.1,0.4-0.3s0.2-0.3,0.2-0.6s0.1-0.5,0.1-0.9v-8.1c0,0,0-0.1,0-0.1s0.1-0.1,0.1-0.1s0.1,0,0.2-0.1s0.2,0,0.4,0
			c0.1,0,0.3,0,0.4,0s0.2,0,0.2,0.1s0.1,0.1,0.1,0.1s0,0.1,0,0.1V193.9z"/>
		<path class="st7" d="M122.8,196.5c0,0.1,0,0.1-0.1,0.2s-0.1,0.1-0.2,0.1s-0.2,0-0.4,0c-0.2,0-0.3,0-0.4,0s-0.2,0-0.2-0.1
			s-0.1-0.1-0.1-0.2v-0.8c-0.3,0.4-0.7,0.7-1.2,0.9s-0.9,0.3-1.3,0.3c-0.4,0-0.8-0.1-1.1-0.2s-0.6-0.3-0.9-0.5s-0.4-0.5-0.6-0.8
			s-0.2-0.6-0.2-1c0-0.4,0.1-0.8,0.3-1.2s0.4-0.6,0.8-0.8s0.8-0.4,1.2-0.5s1-0.2,1.7-0.2h1.1v-0.6c0-0.3,0-0.6-0.1-0.8
			s-0.2-0.4-0.3-0.6s-0.3-0.3-0.6-0.4s-0.5-0.1-0.8-0.1c-0.4,0-0.7,0-1,0.1s-0.5,0.2-0.7,0.3s-0.4,0.2-0.5,0.3s-0.3,0.1-0.3,0.1
			c0,0-0.1,0-0.1,0s-0.1-0.1-0.1-0.1s0-0.1-0.1-0.2s0-0.2,0-0.2c0-0.1,0-0.3,0-0.3s0.1-0.2,0.1-0.2s0.2-0.2,0.4-0.3s0.4-0.2,0.7-0.3
			s0.5-0.2,0.8-0.2s0.6-0.1,0.9-0.1c0.6,0,1.1,0.1,1.5,0.2s0.7,0.3,1,0.6s0.4,0.6,0.5,0.9s0.2,0.8,0.2,1.3V196.5z M121.4,192.9h-1.2
			c-0.4,0-0.7,0-1,0.1s-0.5,0.2-0.7,0.3s-0.3,0.3-0.4,0.5s-0.1,0.4-0.1,0.6c0,0.4,0.1,0.7,0.4,1s0.6,0.4,1.1,0.4
			c0.4,0,0.7-0.1,1.1-0.3s0.7-0.5,1-0.9V192.9z"/>
		<path class="st7" d="M131.2,188.6C131.2,188.6,131.2,188.6,131.2,188.6c0,0.1,0,0.1,0,0.2s0,0.1,0,0.1s0,0.1,0,0.1l-2.7,7.5
			c0,0.1-0.1,0.1-0.1,0.2s-0.1,0.1-0.2,0.1s-0.2,0-0.3,0s-0.3,0-0.4,0s-0.3,0-0.4,0s-0.2,0-0.3-0.1s-0.1-0.1-0.2-0.1
			s-0.1-0.1-0.1-0.1l-2.7-7.5c0-0.1,0-0.1-0.1-0.2s0-0.1,0-0.1s0,0,0-0.1c0,0,0-0.1,0-0.1s0.1-0.1,0.1-0.1s0.1,0,0.2,0s0.2,0,0.3,0
			c0.2,0,0.3,0,0.4,0s0.2,0,0.2,0s0.1,0.1,0.1,0.1s0.1,0.1,0.1,0.1l2.2,6.5l0,0.1l0-0.1l2.2-6.5c0-0.1,0-0.1,0.1-0.1
			s0.1-0.1,0.1-0.1s0.1,0,0.2,0s0.2,0,0.4,0c0.1,0,0.2,0,0.3,0s0.2,0,0.2,0s0.1,0.1,0.1,0.1S131.2,188.5,131.2,188.6z"/>
		<path class="st7" d="M137.9,196.5c0,0.1,0,0.1-0.1,0.2s-0.1,0.1-0.2,0.1s-0.2,0-0.4,0c-0.2,0-0.3,0-0.4,0s-0.2,0-0.2-0.1
			s-0.1-0.1-0.1-0.2v-0.8c-0.3,0.4-0.7,0.7-1.2,0.9s-0.9,0.3-1.3,0.3c-0.4,0-0.8-0.1-1.1-0.2s-0.6-0.3-0.9-0.5s-0.4-0.5-0.6-0.8
			s-0.2-0.6-0.2-1c0-0.4,0.1-0.8,0.3-1.2s0.4-0.6,0.8-0.8s0.8-0.4,1.2-0.5s1-0.2,1.7-0.2h1.1v-0.6c0-0.3,0-0.6-0.1-0.8
			s-0.2-0.4-0.3-0.6s-0.3-0.3-0.6-0.4s-0.5-0.1-0.8-0.1c-0.4,0-0.7,0-1,0.1s-0.5,0.2-0.7,0.3s-0.4,0.2-0.5,0.3s-0.3,0.1-0.3,0.1
			c0,0-0.1,0-0.1,0s-0.1-0.1-0.1-0.1s0-0.1-0.1-0.2s0-0.2,0-0.2c0-0.1,0-0.3,0-0.3s0.1-0.2,0.1-0.2s0.2-0.2,0.4-0.3s0.4-0.2,0.7-0.3
			s0.5-0.2,0.8-0.2s0.6-0.1,0.9-0.1c0.6,0,1.1,0.1,1.5,0.2s0.7,0.3,1,0.6s0.4,0.6,0.5,0.9s0.2,0.8,0.2,1.3V196.5z M136.5,192.9h-1.2
			c-0.4,0-0.7,0-1,0.1s-0.5,0.2-0.7,0.3s-0.3,0.3-0.4,0.5s-0.1,0.4-0.1,0.6c0,0.4,0.1,0.7,0.4,1s0.6,0.4,1.1,0.4
			c0.4,0,0.7-0.1,1.1-0.3s0.7-0.5,1-0.9V192.9z"/>
		<path class="st7" d="M151.7,196.2c0,0.1,0.1,0.2,0.1,0.3s0,0.1-0.1,0.2s-0.1,0.1-0.2,0.1s-0.3,0-0.4,0s-0.3,0-0.4,0s-0.2,0-0.2,0
			s-0.1,0-0.1-0.1s-0.1-0.1-0.1-0.1l-1-2.8h-4.7l-0.9,2.7c0,0.1,0,0.1-0.1,0.1s-0.1,0.1-0.1,0.1s-0.1,0-0.2,0.1s-0.2,0-0.4,0
			c-0.2,0-0.3,0-0.4,0s-0.2,0-0.2-0.1s-0.1-0.1-0.1-0.2s0-0.2,0.1-0.3l3.8-10.6c0-0.1,0.1-0.1,0.1-0.2s0.1-0.1,0.2-0.1s0.2,0,0.3,0
			s0.3,0,0.4,0c0.2,0,0.3,0,0.5,0s0.2,0,0.3,0s0.1,0.1,0.2,0.1s0.1,0.1,0.1,0.2L151.7,196.2z M146.8,186.9L146.8,186.9l-2,5.7h4
			L146.8,186.9z"/>
		<path class="st7" d="M159.8,188.7c0,0.6-0.1,1.1-0.3,1.5s-0.5,0.8-0.8,1.2s-0.8,0.6-1.3,0.7s-1.1,0.3-1.8,0.3h-1.3v4.1
			c0,0,0,0.1,0,0.1s-0.1,0.1-0.1,0.1s-0.1,0-0.2,0.1s-0.2,0-0.4,0s-0.3,0-0.4,0s-0.2,0-0.2-0.1s-0.1,0-0.1-0.1s0-0.1,0-0.1V186
			c0-0.2,0.1-0.4,0.2-0.5s0.3-0.1,0.4-0.1h2.4c0.2,0,0.5,0,0.7,0s0.5,0.1,0.8,0.1s0.6,0.2,0.9,0.4s0.6,0.4,0.8,0.7s0.4,0.6,0.5,0.9
			S159.8,188.3,159.8,188.7z M158.2,188.8c0-0.5-0.1-0.8-0.3-1.2s-0.4-0.5-0.6-0.7s-0.5-0.2-0.8-0.3s-0.5-0.1-0.8-0.1h-1.4v4.6h1.4
			c0.5,0,0.8-0.1,1.1-0.2s0.6-0.3,0.8-0.5s0.4-0.5,0.5-0.7S158.2,189.1,158.2,188.8z"/>
		<path class="st7" d="M168.3,188.7c0,0.6-0.1,1.1-0.3,1.5s-0.5,0.8-0.8,1.2s-0.8,0.6-1.3,0.7s-1.1,0.3-1.8,0.3h-1.3v4.1
			c0,0,0,0.1,0,0.1s-0.1,0.1-0.1,0.1s-0.1,0-0.2,0.1s-0.2,0-0.4,0s-0.3,0-0.4,0s-0.2,0-0.2-0.1s-0.1,0-0.1-0.1s0-0.1,0-0.1V186
			c0-0.2,0.1-0.4,0.2-0.5s0.3-0.1,0.4-0.1h2.4c0.2,0,0.5,0,0.7,0s0.5,0.1,0.8,0.1s0.6,0.2,0.9,0.4s0.6,0.4,0.8,0.7s0.4,0.6,0.5,0.9
			S168.3,188.3,168.3,188.7z M166.7,188.8c0-0.5-0.1-0.8-0.3-1.2s-0.4-0.5-0.6-0.7s-0.5-0.2-0.8-0.3s-0.5-0.1-0.8-0.1h-1.4v4.6h1.4
			c0.5,0,0.8-0.1,1.1-0.2s0.6-0.3,0.8-0.5s0.4-0.5,0.5-0.7S166.7,189.1,166.7,188.8z"/>
	</g>
	<polygon class="st8" points="211.5,190.5 221.6,190 220.1,187.4 302,141.1 303.5,143.7 309.1,135.3 299.1,135.8 300.6,138.4 
		218.6,184.8 217.1,182.2 	"/>
	<path class="st11" d="M786.7,172.1c0-5.1,4.1-9.2,9.2-9.2h147.2c5.1,0,9.2,4.1,9.2,9.2v36.8c0,5.1-4.1,9.2-9.2,9.2H795.9
		c-5.1,0-9.2-4.1-9.2-9.2V172.1z"/>
	<g class="st6">
		<path d="M864.1,191.9c0,0.5-0.1,1-0.2,1.4s-0.4,0.8-0.7,1.1s-0.6,0.5-1.1,0.7s-0.9,0.2-1.4,0.2c-0.5,0-0.9-0.1-1.3-0.2
			s-0.7-0.3-1-0.6s-0.5-0.6-0.7-1s-0.2-0.9-0.2-1.4v-5.5c0,0,0-0.1,0-0.1s0,0,0.1-0.1s0.1,0,0.2,0s0.2,0,0.3,0c0.1,0,0.2,0,0.3,0
			s0.1,0,0.2,0c0,0,0.1,0,0.1,0.1s0,0.1,0,0.1v5.3c0,0.4,0,0.8,0.2,1.1s0.2,0.6,0.4,0.8c0.2,0.2,0.4,0.4,0.7,0.5s0.6,0.2,0.9,0.2
			c0.3,0,0.6-0.1,0.9-0.2s0.5-0.3,0.7-0.5s0.3-0.4,0.4-0.7c0.1-0.3,0.1-0.6,0.1-1v-5.4c0,0,0-0.1,0-0.1s0,0,0.1-0.1s0.1,0,0.2,0
			s0.2,0,0.3,0c0.1,0,0.2,0,0.3,0s0.1,0,0.2,0c0,0,0.1,0,0.1,0.1s0,0.1,0,0.1V191.9z"/>
		<path d="M870.2,193.3c0,0.3-0.1,0.6-0.2,0.8s-0.3,0.5-0.5,0.6s-0.5,0.3-0.8,0.4s-0.6,0.1-1,0.1c-0.2,0-0.4,0-0.6-0.1
			s-0.4-0.1-0.5-0.1s-0.3-0.1-0.4-0.2s-0.2-0.1-0.2-0.2s-0.1-0.1-0.1-0.2s0-0.2,0-0.3c0-0.1,0-0.2,0-0.2s0-0.1,0-0.1s0-0.1,0.1-0.1
			c0,0,0.1,0,0.1,0c0,0,0.1,0,0.2,0.1c0.1,0.1,0.2,0.1,0.4,0.2s0.3,0.1,0.5,0.2s0.4,0.1,0.7,0.1c0.2,0,0.4,0,0.5-0.1
			s0.3-0.1,0.4-0.2s0.2-0.2,0.3-0.3s0.1-0.3,0.1-0.4c0-0.2,0-0.3-0.1-0.4s-0.2-0.2-0.4-0.3s-0.3-0.2-0.5-0.2s-0.4-0.1-0.6-0.2
			c-0.2-0.1-0.4-0.2-0.6-0.3s-0.3-0.2-0.5-0.4s-0.3-0.3-0.4-0.5s-0.1-0.4-0.1-0.7c0-0.2,0-0.5,0.1-0.7c0.1-0.2,0.2-0.4,0.4-0.6
			s0.4-0.3,0.7-0.4s0.6-0.2,1-0.2c0.2,0,0.3,0,0.5,0s0.3,0.1,0.4,0.1s0.2,0.1,0.3,0.1c0.1,0,0.2,0.1,0.2,0.1s0.1,0.1,0.1,0.1
			c0,0,0,0.1,0,0.1s0,0.1,0,0.1s0,0.1,0,0.2c0,0.1,0,0.1,0,0.2s0,0.1,0,0.1c0,0,0,0.1-0.1,0.1s0,0-0.1,0c0,0-0.1,0-0.2-0.1
			s-0.2-0.1-0.3-0.2s-0.3-0.1-0.4-0.2c-0.2-0.1-0.4-0.1-0.6-0.1c-0.2,0-0.4,0-0.5,0.1s-0.3,0.1-0.4,0.2c-0.1,0.1-0.2,0.2-0.2,0.3
			s-0.1,0.2-0.1,0.4c0,0.2,0,0.3,0.1,0.4s0.2,0.2,0.4,0.3s0.3,0.2,0.5,0.2s0.4,0.1,0.6,0.2c0.2,0.1,0.4,0.2,0.6,0.3
			c0.2,0.1,0.4,0.2,0.5,0.3s0.3,0.3,0.4,0.5S870.2,193,870.2,193.3z"/>
		<path d="M877.1,191.6c0,0.2,0,0.3-0.1,0.4c-0.1,0.1-0.2,0.1-0.3,0.1h-4.1c0,0.3,0,0.6,0.1,0.9c0.1,0.3,0.2,0.5,0.3,0.7
			s0.4,0.3,0.6,0.5c0.3,0.1,0.6,0.2,0.9,0.2c0.3,0,0.6,0,0.8-0.1c0.2,0,0.4-0.1,0.6-0.2s0.3-0.1,0.4-0.2c0.1,0,0.2-0.1,0.2-0.1
			c0,0,0.1,0,0.1,0s0,0,0.1,0.1s0,0.1,0,0.1s0,0.1,0,0.2c0,0.1,0,0.1,0,0.2s0,0.1,0,0.1s0,0.1,0,0.1c0,0,0,0.1-0.1,0.1
			c0,0-0.1,0.1-0.2,0.1s-0.3,0.1-0.5,0.2s-0.4,0.1-0.7,0.1c-0.3,0-0.5,0.1-0.8,0.1c-0.5,0-0.9-0.1-1.3-0.2c-0.4-0.1-0.7-0.4-1-0.6
			s-0.5-0.6-0.6-1s-0.2-0.9-0.2-1.5c0-0.5,0.1-1,0.2-1.4s0.3-0.8,0.6-1.1c0.3-0.3,0.6-0.5,0.9-0.7s0.8-0.2,1.2-0.2
			c0.5,0,0.9,0.1,1.2,0.2c0.3,0.2,0.6,0.4,0.8,0.6s0.4,0.6,0.5,0.9s0.2,0.7,0.2,1.1V191.6z M875.9,191.3c0-0.6-0.1-1.1-0.4-1.4
			s-0.7-0.5-1.2-0.5c-0.3,0-0.5,0.1-0.7,0.2s-0.4,0.2-0.5,0.4c-0.1,0.2-0.3,0.4-0.3,0.6s-0.1,0.5-0.1,0.7H875.9z"/>
		<path d="M882.4,189.2c0,0.1,0,0.2,0,0.3s0,0.1,0,0.2s0,0.1-0.1,0.1s0,0-0.1,0s-0.1,0-0.1,0c-0.1,0-0.1,0-0.2-0.1
			c-0.1,0-0.1,0-0.2-0.1s-0.2,0-0.3,0c-0.1,0-0.2,0-0.3,0.1s-0.2,0.1-0.3,0.2c-0.1,0.1-0.2,0.2-0.4,0.4s-0.3,0.4-0.4,0.6v4
			c0,0,0,0.1,0,0.1s0,0-0.1,0.1s-0.1,0-0.2,0s-0.2,0-0.3,0c-0.1,0-0.2,0-0.3,0s-0.1,0-0.2,0c0,0-0.1,0-0.1-0.1c0,0,0-0.1,0-0.1v-6.2
			c0,0,0-0.1,0-0.1s0,0,0.1-0.1s0.1,0,0.2,0s0.1,0,0.3,0c0.1,0,0.2,0,0.2,0c0.1,0,0.1,0,0.2,0s0.1,0,0.1,0.1c0,0,0,0.1,0,0.1v0.9
			c0.2-0.2,0.3-0.4,0.5-0.6c0.1-0.2,0.3-0.3,0.4-0.4s0.3-0.2,0.4-0.2s0.3-0.1,0.4-0.1c0.1,0,0.1,0,0.2,0s0.2,0,0.2,0s0.2,0,0.2,0.1
			c0.1,0,0.1,0,0.1,0.1s0,0,0.1,0.1s0,0,0,0.1s0,0.1,0,0.1C882.4,189,882.4,189.1,882.4,189.2z"/>
	</g>
	<path class="st11" d="M786.7,61.7c0-5.1,4.1-9.2,9.2-9.2h147.2c5.1,0,9.2,4.1,9.2,9.2v36.8c0,5.1-4.1,9.2-9.2,9.2H795.9
		c-5.1,0-9.2-4.1-9.2-9.2V61.7z"/>
	<g class="st6">
		<path d="M811.6,80.2c0,0.7-0.1,1.4-0.3,1.9s-0.4,1.1-0.8,1.5s-0.8,0.7-1.3,0.9s-1.1,0.3-1.8,0.3c-0.7,0-1.2-0.1-1.7-0.3
			s-0.9-0.5-1.2-0.9c-0.3-0.4-0.6-0.8-0.7-1.4s-0.2-1.2-0.2-1.9c0-0.7,0.1-1.3,0.3-1.9s0.4-1.1,0.8-1.5s0.8-0.7,1.3-0.9
			s1.1-0.3,1.8-0.3c0.7,0,1.2,0.1,1.7,0.3s0.9,0.5,1.2,0.9s0.6,0.8,0.7,1.4S811.6,79.5,811.6,80.2z M810.3,80.3c0-0.5,0-1-0.1-1.4
			c-0.1-0.4-0.2-0.8-0.4-1.1s-0.5-0.6-0.8-0.7s-0.8-0.3-1.3-0.3s-0.9,0.1-1.3,0.3s-0.6,0.4-0.8,0.8c-0.2,0.3-0.4,0.7-0.5,1.1
			c-0.1,0.4-0.1,0.9-0.1,1.3c0,0.5,0,1,0.1,1.4c0.1,0.4,0.2,0.8,0.4,1.1s0.5,0.6,0.8,0.7s0.8,0.3,1.3,0.3c0.5,0,0.9-0.1,1.3-0.3
			s0.6-0.5,0.8-0.8s0.4-0.7,0.5-1.1S810.3,80.8,810.3,80.3z"/>
		<path d="M816.5,84.1c0,0.1,0,0.2,0,0.3s0,0.1-0.1,0.2s-0.1,0.1-0.2,0.1s-0.2,0.1-0.2,0.1c-0.1,0-0.2,0-0.3,0.1s-0.2,0-0.3,0
			c-0.3,0-0.6,0-0.8-0.1s-0.4-0.2-0.6-0.4s-0.3-0.4-0.3-0.6c-0.1-0.3-0.1-0.6-0.1-0.9v-3.6h-0.9c-0.1,0-0.1,0-0.2-0.1
			s-0.1-0.2-0.1-0.4c0-0.1,0-0.2,0-0.2c0-0.1,0-0.1,0-0.1s0-0.1,0.1-0.1c0,0,0.1,0,0.1,0h0.9v-1.5c0,0,0-0.1,0-0.1
			c0,0,0-0.1,0.1-0.1c0,0,0.1,0,0.2,0s0.2,0,0.3,0c0.1,0,0.2,0,0.3,0s0.1,0,0.2,0s0.1,0,0.1,0.1s0,0.1,0,0.1v1.5h1.6
			c0,0,0.1,0,0.1,0s0.1,0,0.1,0.1s0,0.1,0,0.1s0,0.1,0,0.2c0,0.2,0,0.3-0.1,0.4s-0.1,0.1-0.2,0.1h-1.6v3.4c0,0.4,0.1,0.7,0.2,1
			c0.1,0.2,0.4,0.3,0.7,0.3c0.1,0,0.2,0,0.3,0s0.2,0,0.2-0.1s0.1,0,0.2-0.1s0.1,0,0.1,0c0,0,0,0,0.1,0s0,0,0,0.1c0,0,0,0.1,0,0.1
			S816.5,84,816.5,84.1z"/>
		<path d="M823.3,84.6C823.3,84.6,823.2,84.6,823.3,84.6c0,0.1-0.1,0.1-0.1,0.2s-0.1,0-0.2,0s-0.2,0-0.3,0c-0.1,0-0.2,0-0.3,0
			s-0.1,0-0.2,0s-0.1,0-0.1-0.1s0-0.1,0-0.1V81c0-0.4,0-0.6-0.1-0.8s-0.1-0.4-0.2-0.6s-0.2-0.3-0.4-0.4c-0.2-0.1-0.4-0.1-0.6-0.1
			c-0.3,0-0.6,0.1-0.8,0.3s-0.6,0.5-0.9,0.9v4.3c0,0,0,0.1,0,0.1s0,0-0.1,0.1s-0.1,0-0.2,0s-0.2,0-0.3,0c-0.1,0-0.2,0-0.3,0
			s-0.1,0-0.2,0c0,0-0.1,0-0.1-0.1c0,0,0-0.1,0-0.1v-9.1c0,0,0-0.1,0-0.1c0,0,0-0.1,0.1-0.1c0,0,0.1,0,0.2,0s0.2,0,0.3,0
			c0.1,0,0.2,0,0.3,0s0.1,0,0.2,0s0.1,0,0.1,0.1s0,0.1,0,0.1v3.7c0.3-0.3,0.6-0.6,1-0.8s0.7-0.2,1-0.2c0.4,0,0.8,0.1,1,0.2
			s0.5,0.3,0.7,0.6s0.3,0.5,0.4,0.8s0.1,0.7,0.1,1.1V84.6z"/>
		<path d="M830.5,81.2c0,0.2,0,0.3-0.1,0.4c-0.1,0.1-0.2,0.1-0.3,0.1h-4.1c0,0.3,0,0.6,0.1,0.9c0.1,0.3,0.2,0.5,0.3,0.7
			s0.4,0.3,0.6,0.5c0.3,0.1,0.6,0.2,0.9,0.2c0.3,0,0.6,0,0.8-0.1c0.2,0,0.4-0.1,0.6-0.2s0.3-0.1,0.4-0.2c0.1,0,0.2-0.1,0.2-0.1
			c0,0,0.1,0,0.1,0s0,0,0.1,0.1s0,0.1,0,0.1s0,0.1,0,0.2c0,0.1,0,0.1,0,0.2s0,0.1,0,0.1s0,0.1,0,0.1c0,0,0,0.1-0.1,0.1
			c0,0-0.1,0.1-0.2,0.1s-0.3,0.1-0.5,0.2s-0.4,0.1-0.7,0.1c-0.3,0-0.5,0.1-0.8,0.1c-0.5,0-0.9-0.1-1.3-0.2c-0.4-0.1-0.7-0.4-1-0.6
			s-0.5-0.6-0.6-1s-0.2-0.9-0.2-1.5c0-0.5,0.1-1,0.2-1.4s0.3-0.8,0.6-1.1c0.3-0.3,0.6-0.5,0.9-0.7s0.8-0.2,1.2-0.2
			c0.5,0,0.9,0.1,1.2,0.2c0.3,0.2,0.6,0.4,0.8,0.6s0.4,0.6,0.5,0.9s0.2,0.7,0.2,1.1V81.2z M829.4,80.9c0-0.6-0.1-1.1-0.4-1.4
			s-0.7-0.5-1.2-0.5c-0.3,0-0.5,0.1-0.7,0.2s-0.4,0.2-0.5,0.4c-0.1,0.2-0.3,0.4-0.3,0.6s-0.1,0.5-0.1,0.7H829.4z"/>
		<path d="M835.8,78.8c0,0.1,0,0.2,0,0.3s0,0.1,0,0.2s0,0.1-0.1,0.1s0,0-0.1,0s-0.1,0-0.1,0c-0.1,0-0.1,0-0.2-0.1
			c-0.1,0-0.1,0-0.2-0.1s-0.2,0-0.3,0c-0.1,0-0.2,0-0.3,0.1s-0.2,0.1-0.3,0.2c-0.1,0.1-0.2,0.2-0.4,0.4s-0.3,0.4-0.4,0.6v4
			c0,0,0,0.1,0,0.1s0,0-0.1,0.1s-0.1,0-0.2,0s-0.2,0-0.3,0c-0.1,0-0.2,0-0.3,0s-0.1,0-0.2,0c0,0-0.1,0-0.1-0.1c0,0,0-0.1,0-0.1v-6.2
			c0,0,0-0.1,0-0.1s0,0,0.1-0.1s0.1,0,0.2,0s0.1,0,0.3,0c0.1,0,0.2,0,0.2,0c0.1,0,0.1,0,0.2,0s0.1,0,0.1,0.1c0,0,0,0.1,0,0.1v0.9
			c0.2-0.2,0.3-0.4,0.5-0.6c0.1-0.2,0.3-0.3,0.4-0.4s0.3-0.2,0.4-0.2s0.3-0.1,0.4-0.1c0.1,0,0.1,0,0.2,0s0.2,0,0.2,0s0.2,0,0.2,0.1
			c0.1,0,0.1,0,0.1,0.1s0,0,0.1,0.1s0,0,0,0.1s0,0.1,0,0.1C835.8,78.6,835.8,78.7,835.8,78.8z"/>
		<path d="M846.3,83.5c0,0.1,0,0.1,0,0.2s0,0.1,0,0.1c0,0,0,0.1,0,0.1s0,0.1-0.1,0.1s-0.1,0.1-0.3,0.2s-0.3,0.2-0.5,0.3
			c-0.2,0.1-0.5,0.2-0.7,0.2s-0.6,0.1-0.9,0.1c-0.6,0-1.1-0.1-1.6-0.3c-0.5-0.2-0.9-0.5-1.2-0.8c-0.3-0.4-0.6-0.8-0.8-1.4
			c-0.2-0.5-0.3-1.2-0.3-1.9c0-0.7,0.1-1.4,0.3-2c0.2-0.6,0.5-1.1,0.8-1.5s0.8-0.7,1.2-0.9c0.5-0.2,1-0.3,1.6-0.3
			c0.3,0,0.5,0,0.7,0.1s0.5,0.1,0.7,0.2s0.4,0.2,0.5,0.3s0.3,0.2,0.3,0.2s0.1,0.1,0.1,0.1s0,0.1,0,0.1c0,0,0,0.1,0,0.2s0,0.1,0,0.2
			c0,0.1,0,0.2,0,0.2c0,0.1,0,0.1,0,0.2c0,0,0,0.1-0.1,0.1s-0.1,0-0.1,0c-0.1,0-0.2,0-0.3-0.1c-0.1-0.1-0.3-0.2-0.4-0.3
			c-0.2-0.1-0.4-0.2-0.7-0.3s-0.6-0.1-0.9-0.1c-0.4,0-0.8,0.1-1.1,0.2s-0.6,0.4-0.8,0.7c-0.2,0.3-0.4,0.7-0.5,1.1
			c-0.1,0.4-0.2,0.9-0.2,1.5c0,0.6,0.1,1.1,0.2,1.5c0.1,0.4,0.3,0.8,0.5,1.1c0.2,0.3,0.5,0.5,0.8,0.7c0.3,0.1,0.7,0.2,1.1,0.2
			c0.4,0,0.7,0,0.9-0.1s0.5-0.2,0.7-0.3s0.3-0.2,0.5-0.3s0.2-0.1,0.3-0.1c0,0,0.1,0,0.1,0c0,0,0,0,0.1,0.1s0,0.1,0,0.2
			S846.3,83.4,846.3,83.5z"/>
		<path d="M853.4,81.4c0,0.5-0.1,1-0.2,1.4s-0.3,0.8-0.6,1.1c-0.3,0.3-0.6,0.5-1,0.7c-0.4,0.2-0.9,0.3-1.4,0.3
			c-0.5,0-0.9-0.1-1.3-0.2s-0.7-0.4-0.9-0.7s-0.4-0.6-0.6-1s-0.2-0.9-0.2-1.4c0-0.5,0.1-1,0.2-1.4s0.3-0.8,0.6-1.1
			c0.3-0.3,0.6-0.5,1-0.7s0.8-0.3,1.4-0.3c0.5,0,0.9,0.1,1.3,0.2s0.7,0.4,0.9,0.7s0.4,0.6,0.6,1C853.4,80.4,853.4,80.9,853.4,81.4z
			 M852.3,81.5c0-0.3,0-0.6-0.1-0.9c-0.1-0.3-0.2-0.6-0.3-0.8s-0.3-0.4-0.6-0.5s-0.5-0.2-0.9-0.2c-0.3,0-0.6,0.1-0.9,0.2
			s-0.4,0.3-0.6,0.5s-0.3,0.5-0.3,0.8c-0.1,0.3-0.1,0.6-0.1,1c0,0.3,0,0.7,0.1,1c0.1,0.3,0.2,0.6,0.3,0.8c0.1,0.2,0.3,0.4,0.6,0.5
			s0.5,0.2,0.9,0.2c0.3,0,0.6-0.1,0.9-0.2c0.2-0.1,0.4-0.3,0.6-0.5s0.3-0.5,0.3-0.8S852.3,81.8,852.3,81.5z"/>
		<path d="M860.4,84.6C860.4,84.6,860.4,84.6,860.4,84.6c0,0.1-0.1,0.1-0.1,0.2s-0.1,0-0.2,0s-0.2,0-0.3,0c-0.1,0-0.2,0-0.3,0
			s-0.1,0-0.2,0s-0.1,0-0.1-0.1s0-0.1,0-0.1V81c0-0.4,0-0.6-0.1-0.8s-0.1-0.4-0.2-0.6s-0.2-0.3-0.4-0.4c-0.2-0.1-0.4-0.1-0.6-0.1
			c-0.3,0-0.6,0.1-0.8,0.3s-0.6,0.5-0.9,0.9v4.3c0,0,0,0.1,0,0.1s0,0-0.1,0.1s-0.1,0-0.2,0s-0.2,0-0.3,0c-0.1,0-0.2,0-0.3,0
			s-0.1,0-0.2,0c0,0-0.1,0-0.1-0.1c0,0,0-0.1,0-0.1v-6.2c0,0,0-0.1,0-0.1s0,0,0.1-0.1s0.1,0,0.2,0s0.1,0,0.3,0c0.1,0,0.2,0,0.2,0
			c0.1,0,0.1,0,0.2,0s0.1,0,0.1,0.1c0,0,0,0.1,0,0.1v0.8c0.3-0.4,0.7-0.7,1-0.9c0.3-0.2,0.7-0.3,1-0.3c0.4,0,0.8,0.1,1,0.2
			s0.5,0.3,0.7,0.6s0.3,0.5,0.4,0.8s0.1,0.7,0.1,1.1V84.6z"/>
		<path d="M865.6,84.1c0,0.1,0,0.2,0,0.3s0,0.1-0.1,0.2s-0.1,0.1-0.2,0.1s-0.2,0.1-0.2,0.1c-0.1,0-0.2,0-0.3,0.1s-0.2,0-0.3,0
			c-0.3,0-0.6,0-0.8-0.1s-0.4-0.2-0.6-0.4s-0.3-0.4-0.3-0.6c-0.1-0.3-0.1-0.6-0.1-0.9v-3.6h-0.9c-0.1,0-0.1,0-0.2-0.1
			s-0.1-0.2-0.1-0.4c0-0.1,0-0.2,0-0.2c0-0.1,0-0.1,0-0.1s0-0.1,0.1-0.1c0,0,0.1,0,0.1,0h0.9v-1.5c0,0,0-0.1,0-0.1
			c0,0,0-0.1,0.1-0.1c0,0,0.1,0,0.2,0s0.2,0,0.3,0c0.1,0,0.2,0,0.3,0s0.1,0,0.2,0s0.1,0,0.1,0.1s0,0.1,0,0.1v1.5h1.6
			c0,0,0.1,0,0.1,0s0.1,0,0.1,0.1s0,0.1,0,0.1s0,0.1,0,0.2c0,0.2,0,0.3-0.1,0.4s-0.1,0.1-0.2,0.1h-1.6v3.4c0,0.4,0.1,0.7,0.2,1
			c0.1,0.2,0.4,0.3,0.7,0.3c0.1,0,0.2,0,0.3,0s0.2,0,0.2-0.1s0.1,0,0.2-0.1s0.1,0,0.1,0c0,0,0,0,0.1,0s0,0,0,0.1c0,0,0,0.1,0,0.1
			S865.6,84,865.6,84.1z"/>
		<path d="M870.7,78.8c0,0.1,0,0.2,0,0.3s0,0.1,0,0.2s0,0.1-0.1,0.1s0,0-0.1,0s-0.1,0-0.1,0c-0.1,0-0.1,0-0.2-0.1
			c-0.1,0-0.1,0-0.2-0.1s-0.2,0-0.3,0c-0.1,0-0.2,0-0.3,0.1s-0.2,0.1-0.3,0.2c-0.1,0.1-0.2,0.2-0.4,0.4s-0.3,0.4-0.4,0.6v4
			c0,0,0,0.1,0,0.1s0,0-0.1,0.1s-0.1,0-0.2,0s-0.2,0-0.3,0c-0.1,0-0.2,0-0.3,0s-0.1,0-0.2,0c0,0-0.1,0-0.1-0.1c0,0,0-0.1,0-0.1v-6.2
			c0,0,0-0.1,0-0.1s0,0,0.1-0.1s0.1,0,0.2,0s0.1,0,0.3,0c0.1,0,0.2,0,0.2,0c0.1,0,0.1,0,0.2,0s0.1,0,0.1,0.1c0,0,0,0.1,0,0.1v0.9
			c0.2-0.2,0.3-0.4,0.5-0.6c0.1-0.2,0.3-0.3,0.4-0.4s0.3-0.2,0.4-0.2s0.3-0.1,0.4-0.1c0.1,0,0.1,0,0.2,0s0.2,0,0.2,0s0.2,0,0.2,0.1
			c0.1,0,0.1,0,0.1,0.1s0,0,0.1,0.1s0,0,0,0.1s0,0.1,0,0.1C870.7,78.6,870.7,78.7,870.7,78.8z"/>
		<path d="M877.7,81.4c0,0.5-0.1,1-0.2,1.4s-0.3,0.8-0.6,1.1c-0.3,0.3-0.6,0.5-1,0.7c-0.4,0.2-0.9,0.3-1.4,0.3
			c-0.5,0-0.9-0.1-1.3-0.2s-0.7-0.4-0.9-0.7s-0.4-0.6-0.6-1s-0.2-0.9-0.2-1.4c0-0.5,0.1-1,0.2-1.4s0.3-0.8,0.6-1.1
			c0.3-0.3,0.6-0.5,1-0.7s0.8-0.3,1.4-0.3c0.5,0,0.9,0.1,1.3,0.2s0.7,0.4,0.9,0.7s0.4,0.6,0.6,1C877.6,80.4,877.7,80.9,877.7,81.4z
			 M876.5,81.5c0-0.3,0-0.6-0.1-0.9c-0.1-0.3-0.2-0.6-0.3-0.8s-0.3-0.4-0.6-0.5S875,79,874.6,79c-0.3,0-0.6,0.1-0.9,0.2
			s-0.4,0.3-0.6,0.5s-0.3,0.5-0.3,0.8c-0.1,0.3-0.1,0.6-0.1,1c0,0.3,0,0.7,0.1,1c0.1,0.3,0.2,0.6,0.3,0.8c0.1,0.2,0.3,0.4,0.6,0.5
			s0.5,0.2,0.9,0.2c0.3,0,0.6-0.1,0.9-0.2c0.2-0.1,0.4-0.3,0.6-0.5s0.3-0.5,0.3-0.8S876.5,81.8,876.5,81.5z"/>
		<path d="M880.5,84.6C880.5,84.6,880.5,84.6,880.5,84.6c0,0.1-0.1,0.1-0.1,0.2s-0.1,0-0.2,0s-0.2,0-0.3,0c-0.1,0-0.2,0-0.3,0
			s-0.1,0-0.2,0c0,0-0.1,0-0.1-0.1c0,0,0-0.1,0-0.1v-9.1c0,0,0-0.1,0-0.1c0,0,0-0.1,0.1-0.1c0,0,0.1,0,0.2,0s0.2,0,0.3,0
			c0.1,0,0.2,0,0.3,0s0.1,0,0.2,0s0.1,0,0.1,0.1s0,0.1,0,0.1V84.6z"/>
		<path d="M895.4,84.6C895.4,84.6,895.4,84.6,895.4,84.6c0,0.1-0.1,0.1-0.1,0.2s-0.1,0-0.2,0c-0.1,0-0.2,0-0.3,0c-0.1,0-0.2,0-0.3,0
			c-0.1,0-0.1,0-0.2,0s-0.1,0-0.1-0.1s0-0.1,0-0.1v-7.7h0l-3.1,7.7c0,0,0,0.1-0.1,0.1c0,0-0.1,0-0.1,0.1s-0.1,0-0.2,0
			c-0.1,0-0.1,0-0.2,0c-0.1,0-0.2,0-0.2,0s-0.1,0-0.2,0s-0.1,0-0.1-0.1c0,0,0,0-0.1-0.1l-3-7.7h0v7.7c0,0,0,0.1,0,0.1
			s-0.1,0-0.1,0.1s-0.1,0-0.2,0s-0.2,0-0.3,0c-0.1,0-0.2,0-0.3,0s-0.1,0-0.2,0s-0.1,0-0.1-0.1s0-0.1,0-0.1v-8.1
			c0-0.2,0.1-0.3,0.2-0.4c0.1-0.1,0.2-0.1,0.3-0.1h0.7c0.1,0,0.3,0,0.4,0s0.2,0.1,0.3,0.1c0.1,0.1,0.2,0.1,0.2,0.2s0.1,0.2,0.1,0.3
			l2.5,6.4h0l2.6-6.4c0.1-0.1,0.1-0.3,0.2-0.3c0.1-0.1,0.1-0.2,0.2-0.2c0.1-0.1,0.2-0.1,0.2-0.1s0.2,0,0.3,0h0.8c0.1,0,0.1,0,0.2,0
			s0.1,0.1,0.2,0.1s0.1,0.1,0.1,0.2c0,0.1,0,0.1,0,0.2V84.6z"/>
		<path d="M902.9,81.2c0,0.2,0,0.3-0.1,0.4c-0.1,0.1-0.2,0.1-0.3,0.1h-4.1c0,0.3,0,0.6,0.1,0.9c0.1,0.3,0.2,0.5,0.3,0.7
			s0.4,0.3,0.6,0.5c0.3,0.1,0.6,0.2,0.9,0.2c0.3,0,0.6,0,0.8-0.1c0.2,0,0.4-0.1,0.6-0.2s0.3-0.1,0.4-0.2c0.1,0,0.2-0.1,0.2-0.1
			c0,0,0.1,0,0.1,0s0,0,0.1,0.1s0,0.1,0,0.1s0,0.1,0,0.2c0,0.1,0,0.1,0,0.2s0,0.1,0,0.1s0,0.1,0,0.1c0,0,0,0.1-0.1,0.1
			c0,0-0.1,0.1-0.2,0.1s-0.3,0.1-0.5,0.2s-0.4,0.1-0.7,0.1c-0.3,0-0.5,0.1-0.8,0.1c-0.5,0-0.9-0.1-1.3-0.2c-0.4-0.1-0.7-0.4-1-0.6
			s-0.5-0.6-0.6-1s-0.2-0.9-0.2-1.5c0-0.5,0.1-1,0.2-1.4s0.3-0.8,0.6-1.1c0.3-0.3,0.6-0.5,0.9-0.7s0.8-0.2,1.2-0.2
			c0.5,0,0.9,0.1,1.2,0.2c0.3,0.2,0.6,0.4,0.8,0.6s0.4,0.6,0.5,0.9s0.2,0.7,0.2,1.1V81.2z M901.8,80.9c0-0.6-0.1-1.1-0.4-1.4
			s-0.7-0.5-1.2-0.5c-0.3,0-0.5,0.1-0.7,0.2s-0.4,0.2-0.5,0.4c-0.1,0.2-0.3,0.4-0.3,0.6s-0.1,0.5-0.1,0.7H901.8z"/>
		<path d="M907.8,84.1c0,0.1,0,0.2,0,0.3s0,0.1-0.1,0.2s-0.1,0.1-0.2,0.1s-0.2,0.1-0.2,0.1c-0.1,0-0.2,0-0.3,0.1s-0.2,0-0.3,0
			c-0.3,0-0.6,0-0.8-0.1s-0.4-0.2-0.6-0.4s-0.3-0.4-0.3-0.6c-0.1-0.3-0.1-0.6-0.1-0.9v-3.6H904c-0.1,0-0.1,0-0.2-0.1
			s-0.1-0.2-0.1-0.4c0-0.1,0-0.2,0-0.2c0-0.1,0-0.1,0-0.1s0-0.1,0.1-0.1c0,0,0.1,0,0.1,0h0.9v-1.5c0,0,0-0.1,0-0.1
			c0,0,0-0.1,0.1-0.1c0,0,0.1,0,0.2,0s0.2,0,0.3,0c0.1,0,0.2,0,0.3,0s0.1,0,0.2,0s0.1,0,0.1,0.1s0,0.1,0,0.1v1.5h1.6
			c0,0,0.1,0,0.1,0s0.1,0,0.1,0.1s0,0.1,0,0.1s0,0.1,0,0.2c0,0.2,0,0.3-0.1,0.4s-0.1,0.1-0.2,0.1H906v3.4c0,0.4,0.1,0.7,0.2,1
			c0.1,0.2,0.4,0.3,0.7,0.3c0.1,0,0.2,0,0.3,0s0.2,0,0.2-0.1s0.1,0,0.2-0.1s0.1,0,0.1,0c0,0,0,0,0.1,0s0,0,0,0.1c0,0,0,0.1,0,0.1
			S907.8,84,907.8,84.1z"/>
		<path d="M914.6,84.6C914.6,84.6,914.6,84.6,914.6,84.6c0,0.1-0.1,0.1-0.1,0.2s-0.1,0-0.2,0s-0.2,0-0.3,0c-0.1,0-0.2,0-0.3,0
			s-0.1,0-0.2,0s-0.1,0-0.1-0.1s0-0.1,0-0.1V81c0-0.4,0-0.6-0.1-0.8s-0.1-0.4-0.2-0.6s-0.2-0.3-0.4-0.4c-0.2-0.1-0.4-0.1-0.6-0.1
			c-0.3,0-0.6,0.1-0.8,0.3s-0.6,0.5-0.9,0.9v4.3c0,0,0,0.1,0,0.1s0,0-0.1,0.1s-0.1,0-0.2,0s-0.2,0-0.3,0c-0.1,0-0.2,0-0.3,0
			s-0.1,0-0.2,0c0,0-0.1,0-0.1-0.1c0,0,0-0.1,0-0.1v-9.1c0,0,0-0.1,0-0.1c0,0,0-0.1,0.1-0.1c0,0,0.1,0,0.2,0s0.2,0,0.3,0
			c0.1,0,0.2,0,0.3,0s0.1,0,0.2,0s0.1,0,0.1,0.1s0,0.1,0,0.1v3.7c0.3-0.3,0.6-0.6,1-0.8s0.7-0.2,1-0.2c0.4,0,0.8,0.1,1,0.2
			s0.5,0.3,0.7,0.6s0.3,0.5,0.4,0.8s0.1,0.7,0.1,1.1V84.6z"/>
		<path d="M922.3,81.4c0,0.5-0.1,1-0.2,1.4s-0.3,0.8-0.6,1.1c-0.3,0.3-0.6,0.5-1,0.7c-0.4,0.2-0.9,0.3-1.4,0.3
			c-0.5,0-0.9-0.1-1.3-0.2s-0.7-0.4-0.9-0.7s-0.4-0.6-0.6-1s-0.2-0.9-0.2-1.4c0-0.5,0.1-1,0.2-1.4s0.3-0.8,0.6-1.1
			c0.3-0.3,0.6-0.5,1-0.7s0.8-0.3,1.4-0.3c0.5,0,0.9,0.1,1.3,0.2s0.7,0.4,0.9,0.7s0.4,0.6,0.6,1C922.3,80.4,922.3,80.9,922.3,81.4z
			 M921.2,81.5c0-0.3,0-0.6-0.1-0.9c-0.1-0.3-0.2-0.6-0.3-0.8s-0.3-0.4-0.6-0.5s-0.5-0.2-0.9-0.2c-0.3,0-0.6,0.1-0.9,0.2
			s-0.4,0.3-0.6,0.5s-0.3,0.5-0.3,0.8c-0.1,0.3-0.1,0.6-0.1,1c0,0.3,0,0.7,0.1,1c0.1,0.3,0.2,0.6,0.3,0.8c0.1,0.2,0.3,0.4,0.6,0.5
			s0.5,0.2,0.9,0.2c0.3,0,0.6-0.1,0.9-0.2c0.2-0.1,0.4-0.3,0.6-0.5s0.3-0.5,0.3-0.8S921.2,81.8,921.2,81.5z"/>
		<path d="M929.3,84.6C929.3,84.6,929.2,84.6,929.3,84.6c0,0.1-0.1,0.1-0.1,0.2c0,0-0.1,0-0.2,0s-0.1,0-0.2,0c-0.1,0-0.2,0-0.2,0
			s-0.1,0-0.2,0s-0.1,0-0.1-0.1s0-0.1,0-0.1v-0.8c-0.3,0.4-0.7,0.6-1,0.8s-0.7,0.3-1.1,0.3c-0.5,0-0.8-0.1-1.2-0.3s-0.6-0.4-0.8-0.7
			s-0.3-0.6-0.4-1.1s-0.1-0.8-0.1-1.3c0-0.5,0.1-1,0.2-1.4s0.3-0.8,0.5-1.1s0.5-0.5,0.8-0.7c0.3-0.2,0.7-0.2,1.1-0.2
			c0.4,0,0.7,0.1,1,0.2c0.3,0.2,0.6,0.4,0.9,0.7v-3.6c0,0,0-0.1,0-0.1c0,0,0-0.1,0.1-0.1s0.1,0,0.2,0c0.1,0,0.2,0,0.3,0
			c0.1,0,0.2,0,0.3,0s0.1,0,0.2,0s0.1,0,0.1,0.1s0,0.1,0,0.1V84.6z M928.1,80.2c-0.3-0.4-0.6-0.7-0.9-0.9c-0.3-0.2-0.6-0.3-0.9-0.3
			c-0.3,0-0.5,0.1-0.7,0.2s-0.4,0.3-0.5,0.5c-0.1,0.2-0.2,0.5-0.3,0.8c-0.1,0.3-0.1,0.6-0.1,0.9c0,0.3,0,0.6,0.1,0.9
			s0.1,0.6,0.2,0.8s0.3,0.4,0.5,0.6s0.4,0.2,0.7,0.2c0.2,0,0.3,0,0.4-0.1c0.1,0,0.3-0.1,0.4-0.2s0.3-0.2,0.5-0.4s0.3-0.3,0.5-0.6
			V80.2z"/>
		<path d="M935.2,82.9c0,0.3-0.1,0.6-0.2,0.8s-0.3,0.5-0.5,0.6s-0.5,0.3-0.8,0.4s-0.6,0.1-1,0.1c-0.2,0-0.4,0-0.6-0.1
			s-0.4-0.1-0.5-0.1s-0.3-0.1-0.4-0.2s-0.2-0.1-0.2-0.2s-0.1-0.1-0.1-0.2s0-0.2,0-0.3c0-0.1,0-0.2,0-0.2s0-0.1,0-0.1s0-0.1,0.1-0.1
			c0,0,0.1,0,0.1,0c0,0,0.1,0,0.2,0.1c0.1,0.1,0.2,0.1,0.4,0.2s0.3,0.1,0.5,0.2s0.4,0.1,0.7,0.1c0.2,0,0.4,0,0.5-0.1
			s0.3-0.1,0.4-0.2s0.2-0.2,0.3-0.3s0.1-0.3,0.1-0.4c0-0.2,0-0.3-0.1-0.4s-0.2-0.2-0.4-0.3s-0.3-0.2-0.5-0.2s-0.4-0.1-0.6-0.2
			c-0.2-0.1-0.4-0.2-0.6-0.3s-0.3-0.2-0.5-0.4s-0.3-0.3-0.4-0.5s-0.1-0.4-0.1-0.7c0-0.2,0-0.5,0.1-0.7c0.1-0.2,0.2-0.4,0.4-0.6
			s0.4-0.3,0.7-0.4s0.6-0.2,1-0.2c0.2,0,0.3,0,0.5,0s0.3,0.1,0.4,0.1s0.2,0.1,0.3,0.1c0.1,0,0.2,0.1,0.2,0.1s0.1,0.1,0.1,0.1
			c0,0,0,0.1,0,0.1s0,0.1,0,0.1s0,0.1,0,0.2c0,0.1,0,0.1,0,0.2s0,0.1,0,0.1c0,0,0,0.1-0.1,0.1s0,0-0.1,0c0,0-0.1,0-0.2-0.1
			s-0.2-0.1-0.3-0.2s-0.3-0.1-0.4-0.2c-0.2-0.1-0.4-0.1-0.6-0.1c-0.2,0-0.4,0-0.5,0.1s-0.3,0.1-0.4,0.2c-0.1,0.1-0.2,0.2-0.2,0.3
			s-0.1,0.2-0.1,0.4c0,0.2,0,0.3,0.1,0.4s0.2,0.2,0.4,0.3s0.3,0.2,0.5,0.2s0.4,0.1,0.6,0.2c0.2,0.1,0.4,0.2,0.6,0.3
			c0.2,0.1,0.4,0.2,0.5,0.3s0.3,0.3,0.4,0.5S935.2,82.6,935.2,82.9z"/>
	</g>
	<polygon class="st8" points="747,186 747,189 777.7,189 777.7,186 786.7,190.5 777.7,195 777.7,192 747,192 747,195 738,190.5 	"/>
	<polygon class="st8" points="747,75.6 747,78.6 777.7,78.6 777.7,75.6 786.7,80.1 777.7,84.6 777.7,81.6 747,81.6 747,84.6 
		738,80.1 	"/>
	<path class="st4" d="M310.7,331.5c-2.3-9.3,9.6-17.9,26.5-19.2c6.9-0.5,13.9,0.3,19.8,2.2c6.3-6.6,21.2-9.1,33.1-5.6
		c2.1,0.6,4,1.4,5.7,2.3c4.9-5.4,17-7.7,26.9-4.9c2.7,0.8,5.1,1.8,7,3.2c8-5.2,22-5.8,31.4-1.4c3.9,1.8,6.6,4.4,7.5,7.2
		c13,2,20.7,9.4,17.2,16.6c-0.3,0.6-0.7,1.2-1.1,1.8c10.5,7.5,7.9,18.2-5.7,24c-4.2,1.8-9.2,2.9-14.5,3.4
		c-0.1,8.1-12.1,14.5-26.8,14.5c-4.9,0-9.7-0.8-13.8-2.2c-5,9-22.3,14.1-38.6,11.4c-6.9-1.1-12.8-3.6-16.8-6.9
		c-16.8,5.6-38.5,2.6-48.6-6.7c-0.1-0.1-0.3-0.2-0.4-0.4c-11,0.7-20.9-3.6-22.2-9.6c-0.7-3.2,1.2-6.4,5.3-8.8
		c-9.5-3.1-12.7-9.8-7.1-15.1c3.2-3,8.8-5,15.2-5.4L310.7,331.5z"/>
	<path class="st10" d="M310.7,331.5c-2.3-9.3,9.6-17.9,26.5-19.2c6.9-0.5,13.9,0.3,19.8,2.2c6.3-6.6,21.2-9.1,33.1-5.6
		c2.1,0.6,4,1.4,5.7,2.3c4.9-5.4,17-7.7,26.9-4.9c2.7,0.8,5.1,1.8,7,3.2c8-5.2,22-5.8,31.4-1.4c3.9,1.8,6.6,4.4,7.5,7.2
		c13,2,20.7,9.4,17.2,16.6c-0.3,0.6-0.7,1.2-1.1,1.8c10.5,7.5,7.9,18.2-5.7,24c-4.2,1.8-9.2,2.9-14.5,3.4
		c-0.1,8.1-12.1,14.5-26.8,14.5c-4.9,0-9.7-0.8-13.8-2.2c-5,9-22.3,14.1-38.6,11.4c-6.9-1.1-12.8-3.6-16.8-6.9
		c-16.8,5.6-38.5,2.6-48.6-6.7c-0.1-0.1-0.3-0.2-0.4-0.4c-11,0.7-20.9-3.6-22.2-9.6c-0.7-3.2,1.2-6.4,5.3-8.8
		c-9.5-3.1-12.7-9.8-7.1-15.1c3.2-3,8.8-5,15.2-5.4L310.7,331.5z"/>
	<path class="st10" d="M311.8,334.2c-0.5-0.9-0.8-1.7-1-2.6 M357.1,314.5c2.2,0.7,4.2,1.5,6,2.5 M394.4,313.6
		c0.4-0.9,0.9-1.8,1.6-2.6 M426.3,312.2c0.9-1.1,2-2.1,3.4-3 M468.7,314.9c0.3,0.8,0.4,1.6,0.4,2.3 M484.6,333.4
		c-1.5,1.9-3.8,3.6-6.6,5 M449.5,347.4c9.2,2.5,15,7.6,14.9,13.2 M425.1,369.3c-0.2,1.2-0.6,2.4-1.2,3.5 M368.4,377.4
		c-1.2-1-2.3-2.1-3.1-3.2 M324.6,369.6c-1.6,0.4-3.3,0.6-5.1,0.7 M314.4,353.4c-4.1,0.2-8.1-0.3-11.6-1.5"/>
	<g class="st6">
		<path class="st7" d="M364.1,349c0,0.1-0.1,0.1-0.1,0.2s-0.1,0.1-0.2,0.1s-0.2,0-0.3,0s-0.3,0-0.4,0c-0.1,0-0.2,0-0.3,0
			s-0.2,0-0.3,0s-0.1,0-0.2,0c0,0-0.1,0-0.1-0.1s-0.1-0.1-0.1-0.1s0-0.1-0.1-0.1l-3.7-10.6c0-0.1-0.1-0.2-0.1-0.3s0-0.1,0.1-0.2
			s0.1-0.1,0.3-0.1s0.3,0,0.5,0c0.2,0,0.3,0,0.4,0s0.2,0,0.2,0s0.1,0.1,0.1,0.1s0.1,0.1,0.1,0.1l3.3,9.6h0l3.2-9.6
			c0-0.1,0-0.1,0.1-0.2s0.1-0.1,0.1-0.1s0.1,0,0.2,0s0.2,0,0.4,0c0.2,0,0.3,0,0.4,0s0.2,0,0.2,0.1s0.1,0.1,0,0.2s0,0.2-0.1,0.3
			L364.1,349z"/>
		<path class="st7" d="M376.2,345c0,0.6-0.1,1.2-0.3,1.8s-0.4,1-0.8,1.4s-0.8,0.7-1.3,0.9c-0.5,0.2-1.1,0.3-1.8,0.3
			c-0.7,0-1.2-0.1-1.7-0.3s-0.9-0.5-1.2-0.8s-0.6-0.8-0.7-1.3s-0.2-1.1-0.2-1.8c0-0.6,0.1-1.2,0.3-1.8s0.4-1,0.8-1.4
			s0.8-0.7,1.3-0.9s1.1-0.3,1.8-0.3c0.7,0,1.2,0.1,1.7,0.3s0.9,0.5,1.2,0.8s0.6,0.8,0.7,1.3S376.2,344.4,376.2,345z M374.7,345.1
			c0-0.4,0-0.8-0.1-1.2c-0.1-0.4-0.2-0.7-0.4-1c-0.2-0.3-0.4-0.5-0.7-0.7c-0.3-0.2-0.7-0.3-1.2-0.3c-0.4,0-0.8,0.1-1.1,0.2
			c-0.3,0.2-0.6,0.4-0.8,0.6c-0.2,0.3-0.4,0.6-0.4,1c-0.1,0.4-0.1,0.8-0.1,1.2c0,0.4,0,0.8,0.1,1.2c0.1,0.4,0.2,0.7,0.4,1
			c0.2,0.3,0.4,0.5,0.7,0.7s0.7,0.2,1.2,0.2c0.4,0,0.8-0.1,1.1-0.2s0.6-0.4,0.8-0.6s0.3-0.6,0.4-1S374.7,345.6,374.7,345.1z"/>
		<path class="st7" d="M379.2,338.5c0,0.3-0.1,0.6-0.2,0.7s-0.4,0.2-0.7,0.2c-0.3,0-0.6-0.1-0.7-0.2s-0.2-0.3-0.2-0.7
			c0-0.3,0.1-0.6,0.2-0.7s0.4-0.2,0.7-0.2c0.3,0,0.6,0.1,0.7,0.2S379.2,338.1,379.2,338.5z M379,349.1c0,0,0,0.1,0,0.1
			s-0.1,0.1-0.1,0.1s-0.1,0-0.2,0.1s-0.2,0-0.4,0c-0.1,0-0.3,0-0.4,0s-0.2,0-0.2-0.1s-0.1-0.1-0.1-0.1s0-0.1,0-0.1v-7.9
			c0,0,0-0.1,0-0.1s0.1-0.1,0.1-0.1s0.1,0,0.2-0.1s0.2,0,0.4,0c0.1,0,0.3,0,0.4,0s0.2,0,0.2,0.1s0.1,0.1,0.1,0.1s0,0.1,0,0.1V349.1z
			"/>
		<path class="st7" d="M386.7,347.9c0,0.1,0,0.2,0,0.3s0,0.1,0,0.2s0,0.1-0.1,0.1s-0.1,0.1-0.1,0.2s-0.2,0.2-0.4,0.3
			s-0.4,0.2-0.6,0.3s-0.5,0.2-0.7,0.2s-0.5,0.1-0.8,0.1c-0.6,0-1.1-0.1-1.5-0.3s-0.8-0.5-1.1-0.8s-0.5-0.8-0.7-1.3s-0.2-1.1-0.2-1.8
			c0-0.8,0.1-1.4,0.3-2s0.5-1,0.8-1.4s0.7-0.6,1.2-0.8s0.9-0.3,1.5-0.3c0.3,0,0.5,0,0.7,0.1s0.5,0.1,0.7,0.2s0.4,0.2,0.5,0.3
			s0.3,0.2,0.3,0.3s0.1,0.1,0.1,0.2s0,0.1,0.1,0.1s0,0.1,0,0.2s0,0.2,0,0.3c0,0.2,0,0.4-0.1,0.5s-0.1,0.1-0.2,0.1
			c-0.1,0-0.2,0-0.3-0.1s-0.3-0.2-0.4-0.3s-0.4-0.2-0.6-0.3s-0.5-0.1-0.9-0.1c-0.7,0-1.2,0.3-1.6,0.8s-0.6,1.3-0.6,2.3
			c0,0.5,0,1,0.1,1.3s0.2,0.7,0.4,1s0.4,0.5,0.7,0.6s0.6,0.2,0.9,0.2c0.3,0,0.6-0.1,0.9-0.2s0.5-0.2,0.7-0.3s0.3-0.2,0.5-0.3
			s0.2-0.2,0.3-0.2c0,0,0.1,0,0.1,0s0.1,0.1,0.1,0.1s0,0.1,0,0.2S386.7,347.7,386.7,347.9z"/>
		<path class="st7" d="M394.7,344.8c0,0.2-0.1,0.4-0.2,0.5s-0.2,0.1-0.4,0.1h-5.2c0,0.4,0,0.8,0.1,1.2s0.2,0.7,0.4,0.9
			c0.2,0.3,0.5,0.4,0.8,0.6c0.3,0.1,0.7,0.2,1.2,0.2c0.4,0,0.7,0,1-0.1s0.5-0.1,0.8-0.2s0.4-0.1,0.5-0.2c0.1-0.1,0.2-0.1,0.3-0.1
			c0,0,0.1,0,0.1,0c0,0,0.1,0.1,0.1,0.1s0,0.1,0,0.2s0,0.2,0,0.3c0,0.1,0,0.1,0,0.2s0,0.1,0,0.1s0,0.1,0,0.1s0,0.1-0.1,0.1
			s-0.1,0.1-0.3,0.2s-0.4,0.1-0.6,0.2s-0.5,0.1-0.9,0.2s-0.7,0.1-1.1,0.1c-0.7,0-1.2-0.1-1.7-0.3s-0.9-0.5-1.2-0.8s-0.6-0.8-0.8-1.3
			s-0.3-1.2-0.3-1.9c0-0.7,0.1-1.3,0.3-1.8s0.4-1,0.8-1.4s0.7-0.7,1.2-0.9s1-0.3,1.6-0.3c0.6,0,1.1,0.1,1.6,0.3s0.8,0.5,1.1,0.8
			s0.5,0.7,0.6,1.2s0.2,0.9,0.2,1.5V344.8z M393.2,344.3c0-0.8-0.2-1.4-0.5-1.8c-0.4-0.4-0.9-0.7-1.6-0.7c-0.4,0-0.7,0.1-0.9,0.2
			s-0.5,0.3-0.7,0.5c-0.2,0.2-0.3,0.5-0.4,0.8s-0.2,0.6-0.2,0.9H393.2z"/>
		<path class="st7" d="M407.3,349.1c0,0,0,0.1,0,0.1s-0.1,0.1-0.1,0.1s-0.1,0-0.2,0.1s-0.2,0-0.4,0c-0.2,0-0.3,0-0.4,0
			s-0.2,0-0.2-0.1c-0.1,0-0.1-0.1-0.1-0.1s-0.1-0.1-0.1-0.2l-1-2.7c-0.1-0.3-0.3-0.6-0.4-0.8s-0.3-0.5-0.5-0.7s-0.4-0.3-0.6-0.4
			s-0.5-0.2-0.9-0.2h-1v4.8c0,0,0,0.1,0,0.1s-0.1,0.1-0.1,0.1s-0.1,0-0.2,0.1s-0.2,0-0.4,0s-0.3,0-0.4,0s-0.2,0-0.2-0.1
			s-0.1,0-0.1-0.1s0-0.1,0-0.1v-10.5c0-0.2,0.1-0.4,0.2-0.5s0.2-0.1,0.4-0.1h2.4c0.3,0,0.5,0,0.7,0s0.4,0,0.5,0
			c0.4,0.1,0.8,0.2,1.2,0.4s0.6,0.4,0.8,0.6s0.4,0.5,0.5,0.9s0.2,0.7,0.2,1.1c0,0.4-0.1,0.7-0.2,1s-0.3,0.6-0.4,0.8
			s-0.4,0.4-0.7,0.6s-0.6,0.3-0.9,0.4c0.2,0.1,0.4,0.2,0.5,0.3s0.3,0.3,0.4,0.5s0.3,0.4,0.4,0.6s0.2,0.5,0.4,0.8l1,2.5
			c0.1,0.2,0.1,0.4,0.2,0.4S407.3,349,407.3,349.1z M405,341.1c0-0.4-0.1-0.8-0.3-1.1s-0.5-0.5-1-0.7c-0.1,0-0.3-0.1-0.5-0.1
			s-0.4,0-0.7,0h-1.3v3.8h1.5c0.4,0,0.7,0,1-0.1s0.5-0.2,0.7-0.4s0.3-0.4,0.4-0.6S405,341.3,405,341.1z"/>
		<path class="st7" d="M414.9,346.1c0,0.5-0.1,1-0.3,1.4s-0.5,0.8-0.8,1.1s-0.8,0.5-1.2,0.7s-1,0.2-1.5,0.2c-0.4,0-0.7,0-1.1-0.1
			s-0.6-0.1-0.9-0.2s-0.5-0.2-0.6-0.3s-0.3-0.2-0.4-0.3s-0.1-0.2-0.1-0.3s0-0.3,0-0.4c0-0.1,0-0.2,0-0.3s0-0.2,0.1-0.2
			s0.1-0.1,0.1-0.1s0.1,0,0.1,0c0.1,0,0.2,0,0.3,0.1s0.3,0.2,0.6,0.3s0.5,0.2,0.8,0.3s0.7,0.2,1.1,0.2c0.3,0,0.6,0,0.9-0.1
			s0.5-0.2,0.7-0.4s0.3-0.4,0.5-0.6s0.2-0.5,0.2-0.8c0-0.3-0.1-0.6-0.2-0.8s-0.3-0.4-0.6-0.6s-0.5-0.3-0.8-0.5s-0.6-0.3-0.9-0.4
			s-0.6-0.3-0.9-0.5s-0.6-0.4-0.8-0.6s-0.4-0.5-0.6-0.9s-0.2-0.7-0.2-1.2c0-0.5,0.1-0.9,0.3-1.3s0.4-0.7,0.7-0.9s0.7-0.4,1.1-0.6
			s0.9-0.2,1.4-0.2c0.3,0,0.5,0,0.8,0.1s0.5,0.1,0.7,0.2s0.4,0.2,0.6,0.2s0.3,0.2,0.3,0.2s0.1,0.1,0.1,0.1s0,0.1,0,0.1s0,0.1,0,0.2
			s0,0.2,0,0.3c0,0.1,0,0.2,0,0.3s0,0.2,0,0.2s0,0.1-0.1,0.1s-0.1,0-0.1,0c-0.1,0-0.2,0-0.3-0.1s-0.3-0.2-0.5-0.3s-0.4-0.2-0.7-0.3
			s-0.6-0.1-0.9-0.1c-0.3,0-0.6,0-0.8,0.1s-0.4,0.2-0.6,0.3s-0.3,0.3-0.3,0.5s-0.1,0.4-0.1,0.6c0,0.3,0.1,0.6,0.2,0.8
			s0.3,0.4,0.6,0.6s0.5,0.3,0.8,0.5s0.6,0.3,0.9,0.4s0.6,0.3,0.9,0.5s0.6,0.4,0.8,0.6s0.4,0.5,0.6,0.9S414.9,345.6,414.9,346.1z"/>
		<path class="st7" d="M422.5,346.1c0,0.5-0.1,1-0.3,1.4s-0.5,0.8-0.8,1.1s-0.8,0.5-1.2,0.7s-1,0.2-1.5,0.2c-0.4,0-0.7,0-1.1-0.1
			s-0.6-0.1-0.9-0.2s-0.5-0.2-0.6-0.3s-0.3-0.2-0.4-0.3s-0.1-0.2-0.1-0.3s0-0.3,0-0.4c0-0.1,0-0.2,0-0.3s0-0.2,0.1-0.2
			s0.1-0.1,0.1-0.1s0.1,0,0.1,0c0.1,0,0.2,0,0.3,0.1s0.3,0.2,0.6,0.3s0.5,0.2,0.8,0.3s0.7,0.2,1.1,0.2c0.3,0,0.6,0,0.9-0.1
			s0.5-0.2,0.7-0.4s0.3-0.4,0.5-0.6s0.2-0.5,0.2-0.8c0-0.3-0.1-0.6-0.2-0.8s-0.3-0.4-0.6-0.6s-0.5-0.3-0.8-0.5s-0.6-0.3-0.9-0.4
			s-0.6-0.3-0.9-0.5s-0.6-0.4-0.8-0.6s-0.4-0.5-0.6-0.9s-0.2-0.7-0.2-1.2c0-0.5,0.1-0.9,0.3-1.3s0.4-0.7,0.7-0.9s0.7-0.4,1.1-0.6
			s0.9-0.2,1.4-0.2c0.3,0,0.5,0,0.8,0.1s0.5,0.1,0.7,0.2s0.4,0.2,0.6,0.2s0.3,0.2,0.3,0.2s0.1,0.1,0.1,0.1s0,0.1,0,0.1s0,0.1,0,0.2
			s0,0.2,0,0.3c0,0.1,0,0.2,0,0.3s0,0.2,0,0.2s0,0.1-0.1,0.1s-0.1,0-0.1,0c-0.1,0-0.2,0-0.3-0.1s-0.3-0.2-0.5-0.3s-0.4-0.2-0.7-0.3
			s-0.6-0.1-0.9-0.1c-0.3,0-0.6,0-0.8,0.1s-0.4,0.2-0.6,0.3s-0.3,0.3-0.3,0.5s-0.1,0.4-0.1,0.6c0,0.3,0.1,0.6,0.2,0.8
			s0.3,0.4,0.6,0.6s0.5,0.3,0.8,0.5s0.6,0.3,0.9,0.4s0.6,0.3,0.9,0.5s0.6,0.4,0.8,0.6s0.4,0.5,0.6,0.9S422.5,345.6,422.5,346.1z"/>
	</g>
	<polygon class="st8" points="391.9,162.9 387.4,171.9 390.4,171.9 390.4,300.5 387.4,300.5 391.9,309.5 396.4,300.5 393.4,300.5 
		393.4,171.9 396.4,171.9 	"/>
	<path class="st4" d="M28.9,348.5c-2.8-25.4,11.8-48.7,32.6-52.2c8.4-1.4,17,0.7,24.4,5.9c7.8-17.9,26-24.7,40.7-15.2
		c2.6,1.7,4.9,3.8,7,6.3c6.1-14.8,20.9-20.8,33-13.5c3.4,2,6.3,5,8.6,8.7c9.8-14,27.1-15.8,38.6-3.9c4.9,5,8.1,11.9,9.2,19.5
		c16,5.3,25.5,25.5,21.1,45c-0.4,1.6-0.8,3.3-1.4,4.8c12.9,20.4,9.7,49.6-7,65.2c-5.2,4.9-11.4,8-17.9,9.2
		c-0.1,21.9-14.9,39.5-32.9,39.4c-6-0.1-11.9-2.1-17-6c-6.1,24.6-27.4,38.5-47.5,31c-8.4-3.1-15.7-9.7-20.6-18.7
		c-20.6,15.1-47.4,7-59.8-18.2c-0.2-0.3-0.3-0.6-0.5-1c-13.5,1.9-25.7-9.8-27.3-26.2c-0.8-8.7,1.5-17.5,6.5-23.9
		c-11.7-8.4-15.6-26.7-8.8-41c3.9-8.2,10.9-13.7,18.6-14.7L28.9,348.5z"/>
	<path class="st10" d="M28.9,348.5c-2.8-25.4,11.8-48.7,32.6-52.2c8.4-1.4,17,0.7,24.4,5.9c7.8-17.9,26-24.7,40.7-15.2
		c2.6,1.7,4.9,3.8,7,6.3c6.1-14.8,20.9-20.8,33-13.5c3.4,2,6.3,5,8.6,8.7c9.8-14,27.1-15.8,38.6-3.9c4.9,5,8.1,11.9,9.2,19.5
		c16,5.3,25.5,25.5,21.1,45c-0.4,1.6-0.8,3.3-1.4,4.8c12.9,20.4,9.7,49.6-7,65.2c-5.2,4.9-11.4,8-17.9,9.2
		c-0.1,21.9-14.9,39.5-32.9,39.4c-6-0.1-11.9-2.1-17-6c-6.1,24.6-27.4,38.5-47.5,31c-8.4-3.1-15.7-9.7-20.6-18.7
		c-20.6,15.1-47.4,7-59.8-18.2c-0.2-0.3-0.3-0.6-0.5-1c-13.5,1.9-25.7-9.8-27.3-26.2c-0.8-8.7,1.5-17.5,6.5-23.9
		c-11.7-8.4-15.6-26.7-8.8-41c3.9-8.2,10.9-13.7,18.6-14.7L28.9,348.5z"/>
	<path class="st10" d="M30.1,355.7c-0.6-2.3-1-4.7-1.3-7.2 M85.8,302.2c2.7,1.9,5.1,4.2,7.3,6.8 M131.8,299.8c0.4-2.4,1.1-4.8,2-7
		 M170.9,296c1.1-2.9,2.5-5.7,4.2-8.1 M223.1,303.4c0.3,2.1,0.5,4.2,0.4,6.4 M242.7,353.5c-1.8,5.2-4.6,9.8-8.2,13.5 M199.4,391.8
		c11.3,6.7,18.4,20.7,18.3,36 M169.5,451.3c-0.2,3.3-0.7,6.5-1.5,9.6 M99.8,473.2c-1.5-2.8-2.8-5.7-3.8-8.8 M45.9,452.1
		c-2,1-4.1,1.6-6.3,1.9 M33.3,408.1c-5,0.5-10-0.9-14.3-4"/>
	<g class="st6">
		<path class="st7" d="M94.3,428.7c0,0.1,0.1,0.2,0.1,0.3s0,0.1-0.1,0.2s-0.1,0.1-0.2,0.1s-0.3,0-0.4,0s-0.3,0-0.4,0s-0.2,0-0.2,0
			c-0.1,0-0.1,0-0.1-0.1s-0.1-0.1-0.1-0.1l-1-2.8h-4.7l-0.9,2.7c0,0.1,0,0.1-0.1,0.1s-0.1,0.1-0.1,0.1c-0.1,0-0.1,0-0.2,0.1
			s-0.2,0-0.4,0c-0.2,0-0.3,0-0.4,0s-0.2,0-0.2-0.1s-0.1-0.1-0.1-0.2s0-0.2,0.1-0.3l3.8-10.6c0-0.1,0.1-0.1,0.1-0.2s0.1-0.1,0.2-0.1
			s0.2,0,0.3,0s0.3,0,0.4,0c0.2,0,0.3,0,0.5,0s0.2,0,0.3,0s0.1,0.1,0.2,0.1s0.1,0.1,0.1,0.2L94.3,428.7z M89.4,419.4L89.4,419.4
			l-2,5.7h4L89.4,419.4z"/>
		<path class="st7" d="M106.4,428.9c0,0.1-0.1,0.1-0.1,0.2s-0.1,0.1-0.2,0.1c-0.1,0-0.2,0-0.3,0.1s-0.3,0-0.4,0c-0.2,0-0.3,0-0.5,0
			s-0.2,0-0.3-0.1c-0.1,0-0.1-0.1-0.2-0.1s-0.1-0.1-0.1-0.2l-2.4-8.6h0l-2.2,8.6c0,0.1,0,0.1-0.1,0.2s-0.1,0.1-0.2,0.1
			c-0.1,0-0.2,0-0.3,0.1s-0.3,0-0.5,0c-0.2,0-0.4,0-0.5,0s-0.2,0-0.3-0.1c-0.1,0-0.1-0.1-0.2-0.1s-0.1-0.1-0.1-0.2l-3-10.5
			c0-0.1-0.1-0.2-0.1-0.3s0-0.1,0.1-0.2s0.1-0.1,0.2-0.1s0.3,0,0.4,0c0.2,0,0.3,0,0.4,0s0.2,0,0.2,0S96,418,96,418s0,0.1,0,0.2
			l2.6,9.5h0l2.4-9.5c0-0.1,0-0.1,0.1-0.2s0.1-0.1,0.1-0.1s0.1,0,0.3-0.1s0.3,0,0.4,0c0.2,0,0.3,0,0.4,0s0.2,0,0.2,0.1
			s0.1,0.1,0.1,0.1s0,0.1,0.1,0.2l2.6,9.5h0l2.5-9.5c0-0.1,0-0.1,0.1-0.2s0.1-0.1,0.1-0.1s0.1,0,0.2-0.1s0.2,0,0.4,0
			c0.2,0,0.3,0,0.4,0s0.2,0,0.2,0.1s0.1,0.1,0.1,0.2s0,0.2,0,0.3L106.4,428.9z"/>
		<path class="st7" d="M116.8,426.1c0,0.5-0.1,1-0.3,1.4s-0.5,0.8-0.8,1.1s-0.8,0.5-1.2,0.7s-1,0.2-1.5,0.2c-0.4,0-0.7,0-1.1-0.1
			s-0.6-0.1-0.9-0.2s-0.5-0.2-0.6-0.3s-0.3-0.2-0.4-0.3s-0.1-0.2-0.1-0.3s0-0.3,0-0.4c0-0.1,0-0.2,0-0.3s0-0.2,0.1-0.2
			s0.1-0.1,0.1-0.1s0.1,0,0.1,0c0.1,0,0.2,0,0.3,0.1s0.3,0.2,0.6,0.3s0.5,0.2,0.8,0.3s0.7,0.2,1.1,0.2c0.3,0,0.6,0,0.9-0.1
			s0.5-0.2,0.7-0.4s0.3-0.4,0.5-0.6s0.2-0.5,0.2-0.8c0-0.3-0.1-0.6-0.2-0.8s-0.3-0.4-0.6-0.6s-0.5-0.3-0.8-0.5s-0.6-0.3-0.9-0.4
			s-0.6-0.3-0.9-0.5s-0.6-0.4-0.8-0.6s-0.4-0.5-0.6-0.9s-0.2-0.7-0.2-1.2c0-0.5,0.1-0.9,0.3-1.3s0.4-0.7,0.7-0.9s0.7-0.4,1.1-0.6
			s0.9-0.2,1.4-0.2c0.3,0,0.5,0,0.8,0.1s0.5,0.1,0.7,0.2s0.4,0.2,0.6,0.2s0.3,0.2,0.3,0.2s0.1,0.1,0.1,0.1s0,0.1,0,0.1s0,0.1,0,0.2
			s0,0.2,0,0.3c0,0.1,0,0.2,0,0.3s0,0.2,0,0.2s0,0.1-0.1,0.1s-0.1,0-0.1,0c-0.1,0-0.2,0-0.3-0.1s-0.3-0.2-0.5-0.3s-0.4-0.2-0.7-0.3
			s-0.6-0.1-0.9-0.1c-0.3,0-0.6,0-0.8,0.1s-0.4,0.2-0.6,0.3s-0.3,0.3-0.3,0.5s-0.1,0.4-0.1,0.6c0,0.3,0.1,0.6,0.2,0.8
			s0.3,0.4,0.6,0.6s0.5,0.3,0.8,0.5s0.6,0.3,0.9,0.4s0.6,0.3,0.9,0.5s0.6,0.4,0.8,0.6s0.4,0.5,0.6,0.9S116.8,425.6,116.8,426.1z"/>
		<path class="st7" d="M127.7,426.1c0,0.5-0.1,1-0.3,1.4s-0.5,0.8-0.8,1.1s-0.8,0.5-1.2,0.7s-1,0.2-1.5,0.2c-0.4,0-0.7,0-1.1-0.1
			s-0.6-0.1-0.9-0.2s-0.5-0.2-0.6-0.3s-0.3-0.2-0.4-0.3s-0.1-0.2-0.1-0.3s0-0.3,0-0.4c0-0.1,0-0.2,0-0.3s0-0.2,0.1-0.2
			s0.1-0.1,0.1-0.1s0.1,0,0.1,0c0.1,0,0.2,0,0.3,0.1s0.3,0.2,0.6,0.3s0.5,0.2,0.8,0.3s0.7,0.2,1.1,0.2c0.3,0,0.6,0,0.9-0.1
			s0.5-0.2,0.7-0.4s0.3-0.4,0.5-0.6s0.2-0.5,0.2-0.8c0-0.3-0.1-0.6-0.2-0.8s-0.3-0.4-0.6-0.6s-0.5-0.3-0.8-0.5s-0.6-0.3-0.9-0.4
			s-0.6-0.3-0.9-0.5s-0.6-0.4-0.8-0.6s-0.4-0.5-0.6-0.9s-0.2-0.7-0.2-1.2c0-0.5,0.1-0.9,0.3-1.3s0.4-0.7,0.7-0.9s0.7-0.4,1.1-0.6
			s0.9-0.2,1.4-0.2c0.3,0,0.5,0,0.8,0.1s0.5,0.1,0.7,0.2s0.4,0.2,0.6,0.2s0.3,0.2,0.3,0.2s0.1,0.1,0.1,0.1s0,0.1,0,0.1s0,0.1,0,0.2
			s0,0.2,0,0.3c0,0.1,0,0.2,0,0.3s0,0.2,0,0.2s0,0.1-0.1,0.1s-0.1,0-0.1,0c-0.1,0-0.2,0-0.3-0.1s-0.3-0.2-0.5-0.3s-0.4-0.2-0.7-0.3
			s-0.6-0.1-0.9-0.1c-0.3,0-0.6,0-0.8,0.1s-0.4,0.2-0.6,0.3s-0.3,0.3-0.3,0.5s-0.1,0.4-0.1,0.6c0,0.3,0.1,0.6,0.2,0.8
			s0.3,0.4,0.6,0.6s0.5,0.3,0.8,0.5s0.6,0.3,0.9,0.4s0.6,0.3,0.9,0.5s0.6,0.4,0.8,0.6s0.4,0.5,0.6,0.9S127.7,425.6,127.7,426.1z"/>
		<path class="st7" d="M135.7,424.8c0,0.2-0.1,0.4-0.2,0.5s-0.2,0.1-0.4,0.1h-5.2c0,0.4,0,0.8,0.1,1.2s0.2,0.7,0.4,0.9
			c0.2,0.3,0.5,0.4,0.8,0.6c0.3,0.1,0.7,0.2,1.2,0.2c0.4,0,0.7,0,1-0.1s0.5-0.1,0.8-0.2s0.4-0.1,0.5-0.2c0.1-0.1,0.2-0.1,0.3-0.1
			c0,0,0.1,0,0.1,0c0,0,0.1,0.1,0.1,0.1s0,0.1,0,0.2s0,0.2,0,0.3c0,0.1,0,0.1,0,0.2s0,0.1,0,0.1s0,0.1,0,0.1s0,0.1-0.1,0.1
			s-0.1,0.1-0.3,0.2s-0.4,0.1-0.6,0.2s-0.5,0.1-0.9,0.2s-0.7,0.1-1.1,0.1c-0.7,0-1.2-0.1-1.7-0.3s-0.9-0.5-1.2-0.8s-0.6-0.8-0.8-1.3
			s-0.3-1.2-0.3-1.9c0-0.7,0.1-1.3,0.3-1.8s0.4-1,0.8-1.4s0.7-0.7,1.2-0.9s1-0.3,1.6-0.3c0.6,0,1.1,0.1,1.6,0.3s0.8,0.5,1.1,0.8
			s0.5,0.7,0.6,1.2s0.2,0.9,0.2,1.5V424.8z M134.3,424.3c0-0.8-0.2-1.4-0.5-1.8c-0.4-0.4-0.9-0.7-1.6-0.7c-0.4,0-0.7,0.1-0.9,0.2
			s-0.5,0.3-0.7,0.5c-0.2,0.2-0.3,0.5-0.4,0.8s-0.2,0.6-0.2,0.9H134.3z"/>
		<path class="st7" d="M141.8,421.7c0,0.1,0,0.2,0,0.3s0,0.2,0,0.2s0,0.1-0.1,0.1s-0.1,0-0.1,0s-0.1,0-0.2,0s-0.1-0.1-0.2-0.1
			s-0.2-0.1-0.3-0.1s-0.2,0-0.3,0c-0.1,0-0.3,0-0.4,0.1s-0.3,0.2-0.4,0.3s-0.3,0.3-0.5,0.5s-0.4,0.5-0.6,0.8v5.2c0,0,0,0.1,0,0.1
			s-0.1,0.1-0.1,0.1s-0.1,0-0.2,0.1s-0.2,0-0.4,0c-0.1,0-0.3,0-0.4,0s-0.2,0-0.2-0.1s-0.1-0.1-0.1-0.1s0-0.1,0-0.1v-7.9
			c0,0,0-0.1,0-0.1s0.1-0.1,0.1-0.1s0.1,0,0.2-0.1s0.2,0,0.3,0c0.1,0,0.2,0,0.3,0s0.2,0,0.2,0.1s0.1,0.1,0.1,0.1s0,0.1,0,0.1v1.2
			c0.2-0.3,0.4-0.6,0.6-0.8s0.4-0.4,0.5-0.5s0.3-0.2,0.5-0.2s0.3-0.1,0.5-0.1c0.1,0,0.2,0,0.3,0s0.2,0,0.3,0s0.2,0,0.3,0.1
			s0.1,0.1,0.2,0.1s0.1,0.1,0.1,0.1s0,0.1,0,0.1s0,0.1,0,0.2S141.8,421.5,141.8,421.7z"/>
		<path class="st7" d="M149.2,421.1C149.2,421.2,149.2,421.2,149.2,421.1c0,0.1,0,0.1,0,0.2s0,0.1,0,0.1s0,0.1,0,0.1l-2.7,7.5
			c0,0.1-0.1,0.1-0.1,0.2s-0.1,0.1-0.2,0.1s-0.2,0-0.3,0s-0.3,0-0.4,0s-0.3,0-0.4,0s-0.2,0-0.3-0.1s-0.1-0.1-0.2-0.1
			s-0.1-0.1-0.1-0.1l-2.7-7.5c0-0.1,0-0.1-0.1-0.2s0-0.1,0-0.1s0,0,0-0.1c0,0,0-0.1,0-0.1s0.1-0.1,0.1-0.1s0.1,0,0.2,0s0.2,0,0.3,0
			c0.2,0,0.3,0,0.4,0s0.2,0,0.2,0s0.1,0.1,0.1,0.1s0.1,0.1,0.1,0.1l2.2,6.5l0,0.1l0-0.1l2.2-6.5c0-0.1,0-0.1,0.1-0.1
			s0.1-0.1,0.1-0.1s0.1,0,0.2,0s0.2,0,0.4,0c0.1,0,0.2,0,0.3,0s0.2,0,0.2,0s0.1,0.1,0.1,0.1S149.2,421.1,149.2,421.1z"/>
		<path class="st7" d="M156.9,424.8c0,0.2-0.1,0.4-0.2,0.5s-0.2,0.1-0.4,0.1h-5.2c0,0.4,0,0.8,0.1,1.2s0.2,0.7,0.4,0.9
			c0.2,0.3,0.5,0.4,0.8,0.6c0.3,0.1,0.7,0.2,1.2,0.2c0.4,0,0.7,0,1-0.1s0.5-0.1,0.8-0.2s0.4-0.1,0.5-0.2c0.1-0.1,0.2-0.1,0.3-0.1
			c0,0,0.1,0,0.1,0c0,0,0.1,0.1,0.1,0.1s0,0.1,0,0.2s0,0.2,0,0.3c0,0.1,0,0.1,0,0.2s0,0.1,0,0.1s0,0.1,0,0.1s0,0.1-0.1,0.1
			s-0.1,0.1-0.3,0.2s-0.4,0.1-0.6,0.2s-0.5,0.1-0.9,0.2s-0.7,0.1-1.1,0.1c-0.7,0-1.2-0.1-1.7-0.3s-0.9-0.5-1.2-0.8s-0.6-0.8-0.8-1.3
			s-0.3-1.2-0.3-1.9c0-0.7,0.1-1.3,0.3-1.8s0.4-1,0.8-1.4s0.7-0.7,1.2-0.9s1-0.3,1.6-0.3c0.6,0,1.1,0.1,1.6,0.3s0.8,0.5,1.1,0.8
			s0.5,0.7,0.6,1.2s0.2,0.9,0.2,1.5V424.8z M155.4,424.3c0-0.8-0.2-1.4-0.5-1.8c-0.4-0.4-0.9-0.7-1.6-0.7c-0.4,0-0.7,0.1-0.9,0.2
			s-0.5,0.3-0.7,0.5c-0.2,0.2-0.3,0.5-0.4,0.8s-0.2,0.6-0.2,0.9H155.4z"/>
		<path class="st7" d="M163,421.7c0,0.1,0,0.2,0,0.3s0,0.2,0,0.2s0,0.1-0.1,0.1s-0.1,0-0.1,0s-0.1,0-0.2,0s-0.1-0.1-0.2-0.1
			s-0.2-0.1-0.3-0.1s-0.2,0-0.3,0c-0.1,0-0.3,0-0.4,0.1s-0.3,0.2-0.4,0.3s-0.3,0.3-0.5,0.5s-0.4,0.5-0.6,0.8v5.2c0,0,0,0.1,0,0.1
			s-0.1,0.1-0.1,0.1s-0.1,0-0.2,0.1s-0.2,0-0.4,0c-0.1,0-0.3,0-0.4,0s-0.2,0-0.2-0.1s-0.1-0.1-0.1-0.1s0-0.1,0-0.1v-7.9
			c0,0,0-0.1,0-0.1s0.1-0.1,0.1-0.1s0.1,0,0.2-0.1s0.2,0,0.3,0c0.1,0,0.2,0,0.3,0s0.2,0,0.2,0.1s0.1,0.1,0.1,0.1s0,0.1,0,0.1v1.2
			c0.2-0.3,0.4-0.6,0.6-0.8s0.4-0.4,0.5-0.5s0.3-0.2,0.5-0.2s0.3-0.1,0.5-0.1c0.1,0,0.2,0,0.3,0s0.2,0,0.3,0s0.2,0,0.3,0.1
			s0.1,0.1,0.2,0.1s0.1,0.1,0.1,0.1s0,0.1,0,0.1s0,0.1,0,0.2S163,421.5,163,421.7z"/>
		<path class="st7" d="M168.8,426.9c0,0.4-0.1,0.8-0.2,1.1s-0.4,0.6-0.6,0.8s-0.6,0.4-1,0.5s-0.8,0.2-1.3,0.2c-0.3,0-0.5,0-0.8-0.1
			s-0.5-0.1-0.7-0.2c-0.2-0.1-0.4-0.1-0.5-0.2s-0.2-0.1-0.3-0.2s-0.1-0.1-0.1-0.2s0-0.2,0-0.4c0-0.1,0-0.2,0-0.3s0-0.1,0-0.2
			s0-0.1,0.1-0.1s0.1,0,0.1,0c0.1,0,0.2,0,0.3,0.1s0.3,0.2,0.5,0.3s0.4,0.2,0.7,0.3s0.5,0.1,0.9,0.1c0.2,0,0.5,0,0.7-0.1
			s0.4-0.1,0.5-0.2s0.3-0.2,0.3-0.4s0.1-0.3,0.1-0.6c0-0.2-0.1-0.4-0.2-0.6s-0.3-0.3-0.5-0.4s-0.4-0.2-0.6-0.3s-0.5-0.2-0.7-0.3
			s-0.5-0.2-0.7-0.3s-0.4-0.3-0.6-0.5s-0.3-0.4-0.5-0.7s-0.2-0.6-0.2-0.9c0-0.3,0.1-0.6,0.2-0.9s0.3-0.5,0.5-0.7s0.5-0.4,0.9-0.5
			s0.8-0.2,1.3-0.2c0.2,0,0.4,0,0.6,0.1s0.4,0.1,0.6,0.1s0.3,0.1,0.4,0.2s0.2,0.1,0.3,0.2s0.1,0.1,0.1,0.1s0,0.1,0,0.1s0,0.1,0,0.2
			s0,0.1,0,0.2c0,0.1,0,0.2,0,0.3s0,0.1,0,0.2s0,0.1-0.1,0.1s-0.1,0-0.1,0c-0.1,0-0.1,0-0.2-0.1s-0.2-0.1-0.4-0.2s-0.3-0.1-0.6-0.2
			s-0.5-0.1-0.7-0.1c-0.2,0-0.5,0-0.7,0.1s-0.3,0.1-0.5,0.2s-0.2,0.2-0.3,0.4s-0.1,0.3-0.1,0.5c0,0.2,0.1,0.4,0.2,0.6
			s0.3,0.3,0.5,0.4s0.4,0.2,0.6,0.3s0.5,0.2,0.7,0.3s0.5,0.2,0.7,0.3s0.5,0.3,0.6,0.4s0.3,0.4,0.5,0.6S168.8,426.6,168.8,426.9z"/>
	</g>
	<path class="st4" d="M55.1,351.7c0-4.5,3.7-8.2,8.2-8.2h130.8c4.5,0,8.2,3.7,8.2,8.2v32.7c0,4.5-3.7,8.2-8.2,8.2H63.3
		c-4.5,0-8.2-3.7-8.2-8.2V351.7z"/>
	<path class="st11" d="M55.1,351.7c0-4.5,3.7-8.2,8.2-8.2h130.8c4.5,0,8.2,3.7,8.2,8.2v32.7c0,4.5-3.7,8.2-8.2,8.2H63.3
		c-4.5,0-8.2-3.7-8.2-8.2V351.7z"/>
	<g class="st6">
		<path class="st7" d="M115.5,373.7c0,0.1,0.1,0.2,0.1,0.3s0,0.1-0.1,0.2s-0.1,0.1-0.2,0.1s-0.3,0-0.4,0s-0.3,0-0.4,0s-0.2,0-0.2,0
			c-0.1,0-0.1,0-0.1-0.1s-0.1-0.1-0.1-0.1l-1-2.8h-4.7l-0.9,2.7c0,0.1,0,0.1-0.1,0.1s-0.1,0.1-0.1,0.1c-0.1,0-0.1,0-0.2,0.1
			s-0.2,0-0.4,0c-0.2,0-0.3,0-0.4,0s-0.2,0-0.2-0.1s-0.1-0.1-0.1-0.2s0-0.2,0.1-0.3l3.8-10.6c0-0.1,0.1-0.1,0.1-0.2s0.1-0.1,0.2-0.1
			s0.2,0,0.3,0s0.3,0,0.4,0c0.2,0,0.3,0,0.5,0s0.2,0,0.3,0s0.1,0.1,0.2,0.1s0.1,0.1,0.1,0.2L115.5,373.7z M110.6,364.4L110.6,364.4
			l-2,5.7h4L110.6,364.4z"/>
		<path class="st7" d="M123.3,373.6c0,0.1,0,0.2,0,0.3s0,0.1-0.1,0.2s-0.1,0.1-0.1,0.1s-0.1,0-0.1,0h-5c-0.1,0-0.3,0-0.4-0.1
			s-0.2-0.3-0.2-0.5v-10.5c0,0,0-0.1,0-0.1s0.1-0.1,0.1-0.1s0.1,0,0.2-0.1s0.2,0,0.4,0c0.1,0,0.3,0,0.4,0s0.2,0,0.2,0.1
			s0.1,0,0.1,0.1s0,0.1,0,0.1v9.8h4.1c0.1,0,0.1,0,0.1,0s0.1,0.1,0.1,0.1s0,0.1,0.1,0.2S123.3,373.5,123.3,373.6z"/>
		<path class="st7" d="M131.2,373.6c0,0.1,0,0.2,0,0.3s0,0.1-0.1,0.2s-0.1,0.1-0.1,0.1s-0.1,0-0.1,0h-5.5c-0.1,0-0.3,0-0.4-0.1
			s-0.2-0.3-0.2-0.5v-10.1c0-0.2,0.1-0.4,0.2-0.5s0.2-0.1,0.4-0.1h5.4c0,0,0.1,0,0.1,0s0.1,0.1,0.1,0.1s0,0.1,0.1,0.2s0,0.2,0,0.3
			c0,0.1,0,0.2,0,0.3s0,0.1-0.1,0.2s-0.1,0.1-0.1,0.1s-0.1,0-0.1,0h-4.4v3.6h3.8c0,0,0.1,0,0.1,0s0.1,0.1,0.1,0.1s0,0.1,0.1,0.2
			s0,0.2,0,0.3c0,0.1,0,0.2,0,0.3s0,0.1-0.1,0.2s-0.1,0.1-0.1,0.1s-0.1,0-0.1,0h-3.8v4.1h4.5c0,0,0.1,0,0.1,0s0.1,0.1,0.1,0.1
			s0,0.1,0.1,0.2S131.2,373.5,131.2,373.6z"/>
		<path class="st7" d="M140.9,373.7c0.1,0.1,0.1,0.2,0.1,0.3s0,0.1-0.1,0.2s-0.1,0.1-0.3,0.1s-0.3,0-0.5,0c-0.2,0-0.3,0-0.4,0
			s-0.2,0-0.3,0s-0.1-0.1-0.1-0.1s-0.1-0.1-0.1-0.1l-2.5-4.5l-2.6,4.5c0,0.1-0.1,0.1-0.1,0.1s-0.1,0.1-0.1,0.1c-0.1,0-0.1,0-0.3,0
			s-0.2,0-0.4,0c-0.2,0-0.3,0-0.5,0s-0.2,0-0.2-0.1s-0.1-0.1,0-0.2s0.1-0.2,0.1-0.3l3.1-5.2l-3-5.1c-0.1-0.1-0.1-0.2-0.1-0.3
			s0-0.1,0-0.2s0.1-0.1,0.2-0.1s0.3,0,0.5,0c0.2,0,0.3,0,0.4,0s0.2,0,0.3,0s0.1,0,0.1,0.1s0.1,0.1,0.1,0.1l2.4,4.3l2.4-4.3
			c0,0,0.1-0.1,0.1-0.1s0.1-0.1,0.1-0.1s0.1,0,0.2,0s0.2,0,0.4,0c0.2,0,0.3,0,0.4,0s0.2,0,0.2,0.1s0.1,0.1,0.1,0.2s-0.1,0.2-0.1,0.3
			l-3,5L140.9,373.7z"/>
		<path class="st7" d="M151.5,373.7c0,0.1,0.1,0.2,0.1,0.3s0,0.1-0.1,0.2s-0.1,0.1-0.2,0.1s-0.3,0-0.4,0s-0.3,0-0.4,0s-0.2,0-0.2,0
			c-0.1,0-0.1,0-0.1-0.1s-0.1-0.1-0.1-0.1l-1-2.8h-4.7l-0.9,2.7c0,0.1,0,0.1-0.1,0.1s-0.1,0.1-0.1,0.1c-0.1,0-0.1,0-0.2,0.1
			s-0.2,0-0.4,0c-0.2,0-0.3,0-0.4,0s-0.2,0-0.2-0.1s-0.1-0.1-0.1-0.2s0-0.2,0.1-0.3l3.8-10.6c0-0.1,0.1-0.1,0.1-0.2s0.1-0.1,0.2-0.1
			s0.2,0,0.3,0s0.3,0,0.4,0c0.2,0,0.3,0,0.5,0s0.2,0,0.3,0s0.1,0.1,0.2,0.1s0.1,0.1,0.1,0.2L151.5,373.7z M146.6,364.4L146.6,364.4
			l-2,5.7h4L146.6,364.4z"/>
	</g>
	<polygon class="st8" points="128.7,218.1 124.2,227.1 127.2,227.1 127.2,334.5 124.2,334.5 128.7,343.5 133.2,334.5 130.2,334.5 
		130.2,227.1 133.2,227.1 	"/>
</g>
</svg>
